<svg width="176" height="88" viewBox="0 0 176 88" fill="none" xmlns="http://www.w3.org/2000/svg">
<g clip-path="url(#clip0_2063_28508)">
<path d="M60.3709 43.6139H63.8112V48.446C62.7378 48.7908 61.3824 48.98 59.9735 48.98C54.2634 48.98 50.9074 44.0902 50.9074 39.3147C50.9074 34.631 53.9429 31.3456 58.178 31.3456C60.8579 31.3456 62.4172 32.2535 63.8122 33.5181V35.0946L66.428 32.4789C64.7735 31.3595 62.3777 30.2957 58.9534 30.2957C51.4361 30.2957 48 35.6737 48 40.0934C48 46.3844 52.5822 50.1742 58.3404 50.1742C61.1325 50.1742 63.6115 49.748 66.4751 48.9512V43.9588C66.4751 43.7036 66.5873 43.5284 66.7549 43.3746L67.6586 42.471H61.5223L60.3709 43.6139Z" fill="#051345"/>
<path d="M75.7826 37.0471C71.4557 37.0471 68.7748 40.2088 68.7748 43.5648C68.7748 46.4615 70.9346 49.9007 75.3105 49.9007C79.5199 49.9007 82.1026 46.7328 82.1026 43.3181C82.1026 40.1373 79.5786 37.0483 75.7826 37.0483V37.0471ZM75.0647 37.9689C78.1153 37.9689 79.4739 41.9433 79.4739 44.7781C79.4739 48.9939 76.3112 49.0772 75.9331 49.0772C74.4858 49.0772 73.4743 48.2025 72.7171 47.0553C72.0506 45.9979 71.3991 44.0336 71.3991 42.1142C71.3991 40.2023 72.0249 39.2688 73.0098 38.582C73.8152 38.0672 74.5692 37.9689 75.0637 37.9689H75.0647Z" fill="#051345"/>
<path d="M104.067 37.0461C100.288 37.0461 98.2437 39.4387 98.2437 42.11C98.2437 44.1437 99.7006 46.4379 102.706 46.4379H103.467C103.467 46.4379 103.26 46.941 103.259 47.427C103.259 48.1438 103.516 48.5464 104.063 49.1659C98.8909 49.481 96.8124 51.567 96.8124 53.8089C96.8124 55.7722 98.6923 57.7044 102.643 57.7044C107.32 57.7044 109.743 55.1077 109.743 52.5593C109.743 50.7628 108.848 49.778 106.581 48.0797C105.915 47.5617 105.786 47.2318 105.786 46.844C105.786 46.2886 106.118 45.9211 106.239 45.7823C106.454 45.5559 106.826 45.2974 106.965 45.1735C107.726 44.5284 108.802 43.5736 108.802 41.668C108.802 40.3606 108.258 39.2359 107.019 38.1828H108.532L109.668 37.0463H104.067V37.0461ZM103.025 37.8963C103.71 37.8963 104.283 38.1388 104.887 38.6419C105.558 39.2464 106.63 40.871 106.63 42.8812C106.63 45.0505 104.944 45.6443 104.032 45.6443C103.585 45.6443 103.05 45.5194 102.597 45.2096C101.591 44.5571 100.593 42.8203 100.593 40.7535C100.593 38.8886 101.703 37.8963 103.025 37.8963ZM104.521 49.9894C104.809 49.9894 105.017 50.013 105.017 50.013C105.017 50.013 105.697 50.499 106.172 50.862C107.279 51.7368 107.969 52.4055 107.969 53.5965C107.969 55.2339 106.45 56.5177 103.99 56.5177C101.29 56.5177 99.2264 55.2606 99.2264 53.2078C99.2264 51.5073 100.641 50.0438 104.521 49.9894Z" fill="#051345"/>
<path d="M110.486 49.5258H115.674L116.464 48.7355L114.977 48.5497C114.576 48.5006 114.338 48.1545 114.338 47.8191V32.1489C114.338 31.8402 114.481 31.6822 114.586 31.5817L115.521 30.646H111.097L109.946 31.7974H111.666V48.0294C111.666 48.2601 111.593 48.4171 111.437 48.5784L110.486 49.5258Z" fill="#051345"/>
<path d="M122.703 37.0471C119.807 37.0471 116.729 39.2549 116.729 43.2186C116.729 46.4923 118.937 49.9007 123.062 49.9007C124.091 49.9007 124.938 49.7684 125.731 49.4042C126.583 49.0122 127.402 48.3756 128 47.5755C126.871 48.1448 125.95 48.5187 124.727 48.5187C122.403 48.5187 120.162 46.8418 119.378 43.7592L127.589 40.4406C127.115 38.7498 125.777 37.0471 122.704 37.0471H122.703ZM122.167 37.9539C123.721 37.9539 124.845 39.2325 124.845 40.2333C124.845 40.5569 124.642 40.7278 124.24 40.8859L119.193 42.927C119.193 42.927 119.057 42.2915 119.057 41.6047C119.057 38.7241 121.14 37.9539 122.167 37.9539Z" fill="#051345"/>
<path d="M90.4647 37.0471C86.1378 37.0471 83.4569 40.2088 83.4569 43.5648C83.4569 46.4615 85.6167 49.9007 89.9926 49.9007C94.202 49.9007 96.7847 46.7328 96.7847 43.3181C96.7847 40.1373 94.2608 37.0483 90.4647 37.0483V37.0471ZM89.7469 37.9689C92.7975 37.9689 94.156 41.9433 94.156 44.7781C94.156 48.9939 90.9934 49.0772 90.6152 49.0772C89.168 49.0772 88.1565 48.2025 87.3993 47.0553C86.7328 45.9979 86.0812 44.0336 86.0812 42.1142C86.0812 40.2023 86.707 39.2688 87.6919 38.582C88.4973 38.0672 89.2514 37.9689 89.7458 37.9689H89.7469Z" fill="#051345"/>
</g>
<defs>
<clipPath id="clip0_2063_28508">
<rect width="80" height="80" fill="white" transform="translate(48 4)"/>
</clipPath>
</defs>
</svg>
