<svg width="16" height="16" viewBox="0 0 16 16" fill="none" xmlns="http://www.w3.org/2000/svg">
<rect width="16" height="16" fill="white"/>
<path fill-rule="evenodd" clip-rule="evenodd" d="M7.04418 4.26565C4.46279 4.26565 2.37016 6.36116 2.37016 8.94611C2.37016 11.5311 4.46279 13.6266 7.04418 13.6266C9.62556 13.6266 11.7182 11.5311 11.7182 8.94611C11.7182 6.36116 9.62556 4.26565 7.04418 4.26565ZM0.977905 8.94611C0.977905 5.59118 3.69387 2.87147 7.04418 2.87147C10.3945 2.87147 13.1104 5.59118 13.1104 8.94611C13.1104 12.301 10.3945 15.0207 7.04418 15.0207C3.69387 15.0207 0.977905 12.301 0.977905 8.94611Z" fill="#0D34BF"/>
<path d="M14.9999 2.17438C14.9999 2.83437 14.4657 3.36939 13.8066 3.36939C13.1475 3.36939 12.6132 2.83437 12.6132 2.17438C12.6132 1.51439 13.1475 0.97937 13.8066 0.97937C14.4657 0.97937 14.9999 1.51439 14.9999 2.17438Z" fill="#0D34BF"/>
</svg>
