<svg width="176" height="88" viewBox="0 0 176 88" fill="none" xmlns="http://www.w3.org/2000/svg">
<g clip-path="url(#clip0_2063_28462)">
<path d="M58.3448 34.967C52.7021 34.967 48 37.3606 48 44.5831C48 50.3047 51.1618 53.9077 58.4902 53.9077C67.1162 53.9077 67.6691 48.2255 67.6691 48.2255H63.4895C63.4895 48.2255 62.5935 51.2851 58.2354 51.2851C54.6858 51.2851 52.1329 48.8873 52.1329 45.5266H68.1065V43.4175C68.1065 40.0926 65.9957 34.967 58.3448 34.967ZM58.1988 37.6624C61.5776 37.6624 63.881 39.7324 63.881 42.8347H52.2252C52.2252 39.541 55.232 37.6624 58.1988 37.6624Z" fill="#E7ECFC"/>
<path d="M68.1035 27.9733V50.2807C68.1035 51.5469 68.0131 53.3249 68.0131 53.3249H71.9995C71.9995 53.3249 72.1427 52.048 72.1427 50.8809C72.1427 50.8809 74.1123 53.9624 79.4679 53.9624C85.1074 53.9624 88.9382 50.0467 88.9382 44.4374C88.9382 39.2187 85.4196 35.0215 79.477 35.0215C73.9122 35.0215 72.183 38.0264 72.183 38.0264V27.9733H68.1035ZM78.448 37.7807C82.2778 37.7807 84.7133 40.6231 84.7133 44.4374C84.7133 48.5276 81.9005 51.2032 78.4755 51.2032C74.388 51.2032 72.183 48.0115 72.183 44.4737C72.183 41.1771 74.1614 37.7807 78.448 37.7807Z" fill="#E7ECFC"/>
<path d="M98.8458 34.967C90.357 34.967 89.8126 39.6149 89.8126 40.3578H94.0378C94.0378 40.3578 94.2593 37.6443 98.5544 37.6443C101.345 37.6443 103.508 38.9219 103.508 41.3777V42.2519H98.5544C91.9781 42.2519 88.5013 44.1758 88.5013 48.08C88.5013 51.9221 91.7136 54.0125 96.0549 54.0125C101.971 54.0125 103.877 50.7434 103.877 50.7434C103.877 52.0438 103.977 53.3251 103.977 53.3251H107.733C107.733 53.3251 107.588 51.7369 107.588 50.7207V41.9378C107.588 36.1788 102.943 34.967 98.8458 34.967ZM103.508 44.8744V46.04C103.508 47.5602 102.57 51.3398 97.0473 51.3398C94.0232 51.3398 92.7266 49.8306 92.7266 48.0798C92.7266 44.895 97.0929 44.8744 103.508 44.8744Z" fill="#E7ECFC"/>
<path d="M105.313 35.696H110.066L116.888 49.3633L123.694 35.696H128L115.603 60.028H111.086L114.663 53.2451L105.313 35.696Z" fill="#E7ECFC"/>
</g>
<defs>
<clipPath id="clip0_2063_28462">
<rect width="80" height="80" fill="white" transform="translate(48 4)"/>
</clipPath>
</defs>
</svg>
