<svg width="1312" height="574" viewBox="0 0 1312 574" fill="none" xmlns="http://www.w3.org/2000/svg">
<g clip-path="url(#clip0_16183_29172)">
<path d="M0 40C0 17.9086 17.9086 0 40 0H1272C1294.09 0 1312 17.9086 1312 40V534C1312 556.091 1294.09 574 1272 574H40C17.9086 574 0 556.091 0 534V40Z" fill="#F3F3F3"/>
<rect x="0.5" y="-23.1624" width="108.337" height="108.337" stroke="#DCDCDC"/>
<mask id="path-3-inside-1_16183_29172" fill="white">
<path d="M1093.33 -23.6624H1202.66V85.675H1093.33V-23.6624Z"/>
</mask>
<path d="M1202.66 -23.6624H1201.66V85.675H1202.66H1203.66V-23.6624H1202.66Z" fill="#DCDCDC" mask="url(#path-3-inside-1_16183_29172)"/>
<mask id="path-5-inside-2_16183_29172" fill="white">
<path d="M1202.66 -23.6624H1312V85.675H1202.66V-23.6624Z"/>
</mask>
<path d="M1312 85.675V84.675H1202.66V85.675V86.675H1312V85.675Z" fill="#DCDCDC" mask="url(#path-5-inside-2_16183_29172)"/>
<rect x="0.5" y="86.1626" width="108.337" height="108.337" stroke="#DCDCDC"/>
<mask id="path-8-inside-3_16183_29172" fill="white">
<path d="M1093.33 85.6626H1202.66V195H1093.33V85.6626Z"/>
</mask>
<path d="M1202.66 85.6626H1201.66V195H1202.66H1203.66V85.6626H1202.66Z" fill="#DCDCDC" mask="url(#path-8-inside-3_16183_29172)"/>
<mask id="path-10-inside-4_16183_29172" fill="white">
<path d="M1202.66 85.6626H1312V195H1202.66V85.6626Z"/>
</mask>
<path d="M1312 195V194H1202.66V195V196H1312V195Z" fill="#DCDCDC" mask="url(#path-10-inside-4_16183_29172)"/>
<rect x="0.5" y="195.5" width="108.337" height="108.337" stroke="#DCDCDC"/>
<mask id="path-13-inside-5_16183_29172" fill="white">
<path d="M109.337 195H218.675V304.338H109.337V195Z"/>
</mask>
<path d="M218.675 304.338V303.338H109.337V304.338V305.338H218.675V304.338Z" fill="#DCDCDC" mask="url(#path-13-inside-5_16183_29172)"/>
<mask id="path-15-inside-6_16183_29172" fill="white">
<path d="M218.663 195H328V304.338H218.663V195Z"/>
</mask>
<path d="M328 304.338V303.338H218.663V304.338V305.338H328V304.338Z" fill="#DCDCDC" mask="url(#path-15-inside-6_16183_29172)"/>
<mask id="path-17-inside-7_16183_29172" fill="white">
<path d="M328 195H437.337V304.338H328V195Z"/>
</mask>
<path d="M437.337 304.338V303.338H328V304.338V305.338H437.337V304.338Z" fill="#DCDCDC" mask="url(#path-17-inside-7_16183_29172)"/>
<mask id="path-19-inside-8_16183_29172" fill="white">
<path d="M437.337 195H546.675V304.338H437.337V195Z"/>
</mask>
<path d="M546.675 304.338V303.338H437.337V304.338V305.338H546.675V304.338Z" fill="#DCDCDC" mask="url(#path-19-inside-8_16183_29172)"/>
<mask id="path-21-inside-9_16183_29172" fill="white">
<path d="M546.663 195H656V304.338H546.663V195Z"/>
</mask>
<path d="M656 304.338V303.338H546.663V304.338V305.338H656V304.338Z" fill="#DCDCDC" mask="url(#path-21-inside-9_16183_29172)"/>
<mask id="path-23-inside-10_16183_29172" fill="white">
<path d="M656 195H765.337V304.338H656V195Z"/>
</mask>
<path d="M765.337 304.338V303.338H656V304.338V305.338H765.337V304.338Z" fill="#DCDCDC" mask="url(#path-23-inside-10_16183_29172)"/>
<mask id="path-25-inside-11_16183_29172" fill="white">
<path d="M765.325 195H874.663V304.338H765.325V195Z"/>
</mask>
<path d="M874.663 304.338V303.338H765.325V304.338V305.338H874.663V304.338Z" fill="#DCDCDC" mask="url(#path-25-inside-11_16183_29172)"/>
<mask id="path-27-inside-12_16183_29172" fill="white">
<path d="M874.663 195H984V304.338H874.663V195Z"/>
</mask>
<path d="M984 304.338V303.338H874.663V304.338V305.338H984V304.338Z" fill="#DCDCDC" mask="url(#path-27-inside-12_16183_29172)"/>
<mask id="path-29-inside-13_16183_29172" fill="white">
<path d="M984 195H1093.34V304.338H984V195Z"/>
</mask>
<path d="M1093.34 304.338V303.338H984V304.338V305.338H1093.34V304.338Z" fill="#DCDCDC" mask="url(#path-29-inside-13_16183_29172)"/>
<rect x="1093.83" y="195.5" width="108.337" height="108.337" stroke="#DCDCDC"/>
<mask id="path-32-inside-14_16183_29172" fill="white">
<path d="M1202.66 195H1312V304.338H1202.66V195Z"/>
</mask>
<path d="M1312 304.338V303.338H1202.66V304.338V305.338H1312V304.338Z" fill="#DCDCDC" mask="url(#path-32-inside-14_16183_29172)"/>
<rect x="0.5" y="304.837" width="108.337" height="108.337" stroke="#DCDCDC"/>
<rect x="109.837" y="304.837" width="108.337" height="108.337" stroke="#DCDCDC"/>
<rect x="109.837" y="195.841" width="108.337" height="108.337" stroke="#DCDCDC"/>
<rect x="109.837" y="86.3937" width="108.337" height="108.337" stroke="#DCDCDC"/>
<rect x="109.837" y="-23.0532" width="108.337" height="108.337" stroke="#DCDCDC"/>
<rect x="219.163" y="304.837" width="108.337" height="108.337" stroke="#DCDCDC"/>
<rect x="219.163" y="195.841" width="108.337" height="108.337" stroke="#DCDCDC"/>
<rect x="219.163" y="86.3937" width="108.337" height="108.337" stroke="#DCDCDC"/>
<rect x="219.163" y="-23.0532" width="108.337" height="108.337" stroke="#DCDCDC"/>
<rect x="328.5" y="304.837" width="108.337" height="108.337" stroke="#DCDCDC"/>
<rect x="328.5" y="195.841" width="108.337" height="108.337" stroke="#DCDCDC"/>
<rect x="328.5" y="86.3937" width="108.337" height="108.337" stroke="#DCDCDC"/>
<rect x="328.5" y="-23.0532" width="108.337" height="108.337" stroke="#DCDCDC"/>
<rect x="437.837" y="304.837" width="108.337" height="108.337" stroke="#DCDCDC"/>
<rect x="437.837" y="195.841" width="108.337" height="108.337" stroke="#DCDCDC"/>
<rect x="437.837" y="86.3937" width="108.337" height="108.337" stroke="#DCDCDC"/>
<rect x="437.837" y="-23.0532" width="108.337" height="108.337" stroke="#DCDCDC"/>
<rect x="547.163" y="304.837" width="108.337" height="108.337" stroke="#DCDCDC"/>
<rect x="547.163" y="195.841" width="108.337" height="108.337" stroke="#DCDCDC"/>
<rect x="547.163" y="86.3937" width="108.337" height="108.337" stroke="#DCDCDC"/>
<rect x="547.163" y="-23.0532" width="108.337" height="108.337" stroke="#DCDCDC"/>
<rect x="656.5" y="304.837" width="108.337" height="108.337" stroke="#DCDCDC"/>
<rect x="656.5" y="195.841" width="108.337" height="108.337" stroke="#DCDCDC"/>
<rect x="656.5" y="86.3937" width="108.337" height="108.337" stroke="#DCDCDC"/>
<rect x="656.5" y="-23.0532" width="108.337" height="108.337" stroke="#DCDCDC"/>
<rect x="765.825" y="304.837" width="108.337" height="108.337" stroke="#DCDCDC"/>
<rect x="765.825" y="195.841" width="108.337" height="108.337" stroke="#DCDCDC"/>
<rect x="765.825" y="86.3937" width="108.337" height="108.337" stroke="#DCDCDC"/>
<rect x="765.825" y="-23.0532" width="108.337" height="108.337" stroke="#DCDCDC"/>
<rect x="875.163" y="304.837" width="108.337" height="108.337" stroke="#DCDCDC"/>
<rect x="875.163" y="195.841" width="108.337" height="108.337" stroke="#DCDCDC"/>
<rect x="875.163" y="86.3937" width="108.337" height="108.337" stroke="#DCDCDC"/>
<rect x="875.163" y="-23.0532" width="108.337" height="108.337" stroke="#DCDCDC"/>
<rect x="984.5" y="304.837" width="108.337" height="108.337" stroke="#DCDCDC"/>
<rect x="984.5" y="195.841" width="108.337" height="108.337" stroke="#DCDCDC"/>
<rect x="984.5" y="86.3937" width="108.337" height="108.337" stroke="#DCDCDC"/>
<rect x="984.5" y="-23.0532" width="108.337" height="108.337" stroke="#DCDCDC"/>
<rect x="1093.83" y="304.837" width="108.337" height="108.337" stroke="#DCDCDC"/>
<rect x="1093.83" y="195.841" width="108.337" height="108.337" stroke="#DCDCDC"/>
<rect x="1093.83" y="86.3937" width="108.337" height="108.337" stroke="#DCDCDC"/>
<rect x="1093.83" y="-23.0532" width="108.337" height="108.337" stroke="#DCDCDC"/>
<mask id="path-75-inside-15_16183_29172" fill="white">
<path d="M1202.66 304.337H1312V413.675H1202.66V304.337Z"/>
</mask>
<path d="M1312 413.675V412.675H1202.66V413.675V414.675H1312V413.675Z" fill="#DCDCDC" mask="url(#path-75-inside-15_16183_29172)"/>
<rect x="0.5" y="414.162" width="108.337" height="108.337" stroke="#DCDCDC"/>
<rect x="109.837" y="414.162" width="108.337" height="108.337" stroke="#DCDCDC"/>
<rect x="219.163" y="414.162" width="108.337" height="108.337" stroke="#DCDCDC"/>
<rect x="328.5" y="414.162" width="108.337" height="108.337" stroke="#DCDCDC"/>
<rect x="437.837" y="414.162" width="108.337" height="108.337" stroke="#DCDCDC"/>
<rect x="547.163" y="414.162" width="108.337" height="108.337" stroke="#DCDCDC"/>
<rect x="656.5" y="414.162" width="108.337" height="108.337" stroke="#DCDCDC"/>
<rect x="765.825" y="414.162" width="108.337" height="108.337" stroke="#DCDCDC"/>
<rect x="875.163" y="414.162" width="108.337" height="108.337" stroke="#DCDCDC"/>
<rect x="984.5" y="414.162" width="108.337" height="108.337" stroke="#DCDCDC"/>
<rect x="1093.83" y="414.162" width="108.337" height="108.337" stroke="#DCDCDC"/>
<mask id="path-88-inside-16_16183_29172" fill="white">
<path d="M1202.66 413.662H1312V523H1202.66V413.662Z"/>
</mask>
<path d="M1312 523V522H1202.66V523V524H1312V523Z" fill="#DCDCDC" mask="url(#path-88-inside-16_16183_29172)"/>
<rect x="0.5" y="523.5" width="108.337" height="108.337" stroke="#DCDCDC"/>
<rect x="109.837" y="523.5" width="108.337" height="108.337" stroke="#DCDCDC"/>
<rect x="219.163" y="523.5" width="108.337" height="108.337" stroke="#DCDCDC"/>
<rect x="328.5" y="523.5" width="108.337" height="108.337" stroke="#DCDCDC"/>
<rect x="437.837" y="523.5" width="108.337" height="108.337" stroke="#DCDCDC"/>
<rect x="547.163" y="523.5" width="108.337" height="108.337" stroke="#DCDCDC"/>
<rect x="656.5" y="523.5" width="108.337" height="108.337" stroke="#DCDCDC"/>
<rect x="765.825" y="523.5" width="108.337" height="108.337" stroke="#DCDCDC"/>
<rect x="875.163" y="523.5" width="108.337" height="108.337" stroke="#DCDCDC"/>
<rect x="984.5" y="523.5" width="108.337" height="108.337" stroke="#DCDCDC"/>
<rect x="1093.83" y="523.5" width="108.337" height="108.337" stroke="#DCDCDC"/>
<mask id="path-101-inside-17_16183_29172" fill="white">
<path d="M1202.66 523H1312V632.337H1202.66V523Z"/>
</mask>
<path d="M1312 632.337V631.337H1202.66V632.337V633.337H1312V632.337Z" fill="#DCDCDC" mask="url(#path-101-inside-17_16183_29172)"/>
<rect y="478" width="1336" height="106" fill="url(#paint0_linear_16183_29172)"/>
<rect x="178" width="573" height="178" transform="rotate(90 178 0)" fill="url(#paint1_linear_16183_29172)"/>
<rect x="1134" y="573" width="573" height="178" transform="rotate(-90 1134 573)" fill="url(#paint2_linear_16183_29172)"/>
<rect x="1312" y="62" width="1312" height="62.0001" transform="rotate(180 1312 62)" fill="url(#paint3_linear_16183_29172)"/>
</g>
<defs>
<linearGradient id="paint0_linear_16183_29172" x1="668" y1="478" x2="668" y2="577.449" gradientUnits="userSpaceOnUse">
<stop stop-color="#F3F3F3" stop-opacity="0"/>
<stop offset="1" stop-color="#F3F3F3"/>
</linearGradient>
<linearGradient id="paint1_linear_16183_29172" x1="464.5" y1="-5.30481e-06" x2="464.5" y2="167" gradientUnits="userSpaceOnUse">
<stop stop-color="#F3F3F3" stop-opacity="0"/>
<stop offset="1" stop-color="#F3F3F3"/>
</linearGradient>
<linearGradient id="paint2_linear_16183_29172" x1="1420.5" y1="573" x2="1420.5" y2="740" gradientUnits="userSpaceOnUse">
<stop stop-color="#F3F3F3" stop-opacity="0"/>
<stop offset="1" stop-color="#F3F3F3"/>
</linearGradient>
<linearGradient id="paint3_linear_16183_29172" x1="1968" y1="62" x2="1968" y2="120.169" gradientUnits="userSpaceOnUse">
<stop stop-color="#F3F3F3" stop-opacity="0"/>
<stop offset="1" stop-color="#F3F3F3"/>
</linearGradient>
<clipPath id="clip0_16183_29172">
<path d="M0 40C0 17.9086 17.9086 0 40 0H1272C1294.09 0 1312 17.9086 1312 40V534C1312 556.091 1294.09 574 1272 574H40C17.9086 574 0 556.091 0 534V40Z" fill="white"/>
</clipPath>
</defs>
</svg>
