<svg width="1312" height="574" viewBox="0 0 1312 574" fill="none" xmlns="http://www.w3.org/2000/svg">
<g clip-path="url(#clip0_16183_29173)">
<path d="M0 40C0 17.9086 17.9086 0 40 0H1272C1294.09 0 1312 17.9086 1312 40V534C1312 556.091 1294.09 574 1272 574H40C17.9086 574 0 556.091 0 534V40Z" fill="#222222"/>
<rect x="0.5" y="-30.7937" width="108.337" height="108.337" stroke="#141414"/>
<rect x="109.837" y="-30.7937" width="108.337" height="108.337" stroke="#141414"/>
<rect x="219.163" y="-30.7937" width="108.337" height="108.337" stroke="#141414"/>
<rect x="328.5" y="-30.7937" width="108.337" height="108.337" stroke="#141414"/>
<rect x="437.837" y="-30.7937" width="108.337" height="108.337" stroke="#141414"/>
<rect x="547.163" y="-30.7937" width="108.337" height="108.337" stroke="#141414"/>
<rect x="656.5" y="-30.7937" width="108.337" height="108.337" stroke="#141414"/>
<rect x="765.825" y="-30.7937" width="108.337" height="108.337" stroke="#141414"/>
<rect x="875.163" y="-30.7937" width="108.337" height="108.337" stroke="#141414"/>
<rect x="984.5" y="-30.7937" width="108.337" height="108.337" stroke="#141414"/>
<rect x="1093.83" y="-30.7937" width="108.337" height="108.337" stroke="#141414"/>
<mask id="path-13-inside-1_16183_29173" fill="white">
<path d="M1202.66 -31.2937H1312V78.0437H1202.66V-31.2937Z"/>
</mask>
<path d="M1312 78.0437V77.0437H1202.66V78.0437V79.0437H1312V78.0437Z" fill="#141414" mask="url(#path-13-inside-1_16183_29173)"/>
<rect x="0.5" y="78.5439" width="108.337" height="108.337" stroke="#141414"/>
<mask id="path-16-inside-2_16183_29173" fill="white">
<path d="M1093.33 78.0439H1202.66V187.381H1093.33V78.0439Z"/>
</mask>
<path d="M1202.66 78.0439H1201.66V187.381H1202.66H1203.66V78.0439H1202.66Z" fill="#141414" mask="url(#path-16-inside-2_16183_29173)"/>
<mask id="path-18-inside-3_16183_29173" fill="white">
<path d="M1202.66 78.0439H1312V187.381H1202.66V78.0439Z"/>
</mask>
<path d="M1312 187.381V186.381H1202.66V187.381V188.381H1312V187.381Z" fill="#141414" mask="url(#path-18-inside-3_16183_29173)"/>
<rect x="0.5" y="187.869" width="108.337" height="108.337" stroke="#141414"/>
<mask id="path-21-inside-4_16183_29173" fill="white">
<path d="M1093.33 187.369H1202.66V296.706H1093.33V187.369Z"/>
</mask>
<path d="M1202.66 187.369H1201.66V296.706H1202.66H1203.66V187.369H1202.66Z" fill="#141414" mask="url(#path-21-inside-4_16183_29173)"/>
<mask id="path-23-inside-5_16183_29173" fill="white">
<path d="M1202.66 187.369H1312V296.706H1202.66V187.369Z"/>
</mask>
<path d="M1312 296.706V295.706H1202.66V296.706V297.706H1312V296.706Z" fill="#141414" mask="url(#path-23-inside-5_16183_29173)"/>
<rect x="0.5" y="297.207" width="108.337" height="108.337" stroke="#141414"/>
<mask id="path-26-inside-6_16183_29173" fill="white">
<path d="M109.337 296.707H218.675V406.044H109.337V296.707Z"/>
</mask>
<path d="M218.675 406.044V405.044H109.337V406.044V407.044H218.675V406.044Z" fill="#141414" mask="url(#path-26-inside-6_16183_29173)"/>
<mask id="path-28-inside-7_16183_29173" fill="white">
<path d="M218.663 296.707H328V406.044H218.663V296.707Z"/>
</mask>
<path d="M328 406.044V405.044H218.663V406.044V407.044H328V406.044Z" fill="#141414" mask="url(#path-28-inside-7_16183_29173)"/>
<mask id="path-30-inside-8_16183_29173" fill="white">
<path d="M328 296.707H437.337V406.044H328V296.707Z"/>
</mask>
<path d="M437.337 406.044V405.044H328V406.044V407.044H437.337V406.044Z" fill="#141414" mask="url(#path-30-inside-8_16183_29173)"/>
<mask id="path-32-inside-9_16183_29173" fill="white">
<path d="M437.337 296.707H546.675V406.044H437.337V296.707Z"/>
</mask>
<path d="M546.675 406.044V405.044H437.337V406.044V407.044H546.675V406.044Z" fill="#141414" mask="url(#path-32-inside-9_16183_29173)"/>
<mask id="path-34-inside-10_16183_29173" fill="white">
<path d="M546.663 296.707H656V406.044H546.663V296.707Z"/>
</mask>
<path d="M656 406.044V405.044H546.663V406.044V407.044H656V406.044Z" fill="#141414" mask="url(#path-34-inside-10_16183_29173)"/>
<mask id="path-36-inside-11_16183_29173" fill="white">
<path d="M656 296.707H765.337V406.044H656V296.707Z"/>
</mask>
<path d="M765.337 406.044V405.044H656V406.044V407.044H765.337V406.044Z" fill="#141414" mask="url(#path-36-inside-11_16183_29173)"/>
<mask id="path-38-inside-12_16183_29173" fill="white">
<path d="M765.325 296.707H874.663V406.044H765.325V296.707Z"/>
</mask>
<path d="M874.663 406.044V405.044H765.325V406.044V407.044H874.663V406.044Z" fill="#141414" mask="url(#path-38-inside-12_16183_29173)"/>
<mask id="path-40-inside-13_16183_29173" fill="white">
<path d="M874.663 296.707H984V406.044H874.663V296.707Z"/>
</mask>
<path d="M984 406.044V405.044H874.663V406.044V407.044H984V406.044Z" fill="#141414" mask="url(#path-40-inside-13_16183_29173)"/>
<mask id="path-42-inside-14_16183_29173" fill="white">
<path d="M984 296.707H1093.34V406.044H984V296.707Z"/>
</mask>
<path d="M1093.34 406.044V405.044H984V406.044V407.044H1093.34V406.044Z" fill="#141414" mask="url(#path-42-inside-14_16183_29173)"/>
<rect x="1093.83" y="297.207" width="108.337" height="108.337" stroke="#141414"/>
<mask id="path-45-inside-15_16183_29173" fill="white">
<path d="M1202.66 296.707H1312V406.044H1202.66V296.707Z"/>
</mask>
<path d="M1312 406.044V405.044H1202.66V406.044V407.044H1312V406.044Z" fill="#141414" mask="url(#path-45-inside-15_16183_29173)"/>
<rect x="0.5" y="406.543" width="108.337" height="108.337" stroke="#141414"/>
<rect x="109.837" y="406.543" width="108.337" height="108.337" stroke="#141414"/>
<rect x="109.837" y="297.547" width="108.337" height="108.337" stroke="#141414"/>
<rect x="109.837" y="188.1" width="108.337" height="108.337" stroke="#141414"/>
<rect x="109.837" y="78.6531" width="108.337" height="108.337" stroke="#141414"/>
<rect x="219.163" y="406.543" width="108.337" height="108.337" stroke="#141414"/>
<rect x="219.163" y="297.547" width="108.337" height="108.337" stroke="#141414"/>
<rect x="219.163" y="188.1" width="108.337" height="108.337" stroke="#141414"/>
<rect x="219.163" y="78.6531" width="108.337" height="108.337" stroke="#141414"/>
<rect x="328.5" y="406.543" width="108.337" height="108.337" stroke="#141414"/>
<rect x="328.5" y="297.547" width="108.337" height="108.337" stroke="#141414"/>
<rect x="328.5" y="188.1" width="108.337" height="108.337" stroke="#141414"/>
<rect x="328.5" y="78.6531" width="108.337" height="108.337" stroke="#141414"/>
<rect x="437.837" y="406.543" width="108.337" height="108.337" stroke="#141414"/>
<rect x="437.837" y="297.547" width="108.337" height="108.337" stroke="#141414"/>
<rect x="437.837" y="188.1" width="108.337" height="108.337" stroke="#141414"/>
<rect x="437.837" y="78.6531" width="108.337" height="108.337" stroke="#141414"/>
<rect x="547.163" y="406.543" width="108.337" height="108.337" stroke="#141414"/>
<rect x="547.163" y="297.547" width="108.337" height="108.337" stroke="#141414"/>
<rect x="547.163" y="188.1" width="108.337" height="108.337" stroke="#141414"/>
<rect x="547.163" y="78.6531" width="108.337" height="108.337" stroke="#141414"/>
<rect x="656.5" y="406.543" width="108.337" height="108.337" stroke="#141414"/>
<rect x="656.5" y="297.547" width="108.337" height="108.337" stroke="#141414"/>
<rect x="656.5" y="188.1" width="108.337" height="108.337" stroke="#141414"/>
<rect x="656.5" y="78.6531" width="108.337" height="108.337" stroke="#141414"/>
<rect x="765.825" y="406.543" width="108.337" height="108.337" stroke="#141414"/>
<rect x="765.825" y="297.547" width="108.337" height="108.337" stroke="#141414"/>
<rect x="765.825" y="188.1" width="108.337" height="108.337" stroke="#141414"/>
<rect x="765.825" y="78.6531" width="108.337" height="108.337" stroke="#141414"/>
<rect x="875.163" y="406.543" width="108.337" height="108.337" stroke="#141414"/>
<rect x="875.163" y="297.547" width="108.337" height="108.337" stroke="#141414"/>
<rect x="875.163" y="188.1" width="108.337" height="108.337" stroke="#141414"/>
<rect x="875.163" y="78.6531" width="108.337" height="108.337" stroke="#141414"/>
<rect x="984.5" y="406.543" width="108.337" height="108.337" stroke="#141414"/>
<rect x="984.5" y="297.547" width="108.337" height="108.337" stroke="#141414"/>
<rect x="984.5" y="188.1" width="108.337" height="108.337" stroke="#141414"/>
<rect x="984.5" y="78.6531" width="108.337" height="108.337" stroke="#141414"/>
<rect x="1093.83" y="406.543" width="108.337" height="108.337" stroke="#141414"/>
<rect x="1093.83" y="297.547" width="108.337" height="108.337" stroke="#141414"/>
<rect x="1093.83" y="188.1" width="108.337" height="108.337" stroke="#141414"/>
<rect x="1093.83" y="78.6531" width="108.337" height="108.337" stroke="#141414"/>
<mask id="path-88-inside-16_16183_29173" fill="white">
<path d="M1202.66 406.043H1312V515.381H1202.66V406.043Z"/>
</mask>
<path d="M1312 515.381V514.381H1202.66V515.381V516.381H1312V515.381Z" fill="#141414" mask="url(#path-88-inside-16_16183_29173)"/>
<rect x="0.5" y="515.869" width="108.337" height="108.337" stroke="#141414"/>
<rect x="109.837" y="515.869" width="108.337" height="108.337" stroke="#141414"/>
<rect x="219.163" y="515.869" width="108.337" height="108.337" stroke="#141414"/>
<rect x="328.5" y="515.869" width="108.337" height="108.337" stroke="#141414"/>
<rect x="437.837" y="515.869" width="108.337" height="108.337" stroke="#141414"/>
<rect x="547.163" y="515.869" width="108.337" height="108.337" stroke="#141414"/>
<rect x="656.5" y="515.869" width="108.337" height="108.337" stroke="#141414"/>
<rect x="765.825" y="515.869" width="108.337" height="108.337" stroke="#141414"/>
<rect x="875.163" y="515.869" width="108.337" height="108.337" stroke="#141414"/>
<rect x="984.5" y="515.869" width="108.337" height="108.337" stroke="#141414"/>
<rect x="1093.83" y="515.869" width="108.337" height="108.337" stroke="#141414"/>
<mask id="path-101-inside-17_16183_29173" fill="white">
<path d="M1202.66 515.369H1312V624.706H1202.66V515.369Z"/>
</mask>
<path d="M1312 624.706V623.706H1202.66V624.706V625.706H1312V624.706Z" fill="#141414" mask="url(#path-101-inside-17_16183_29173)"/>
<rect y="473" width="1336" height="106" fill="url(#paint0_linear_16183_29173)"/>
<rect x="178" y="-4.99988" width="573" height="178" transform="rotate(90 178 -4.99988)" fill="url(#paint1_linear_16183_29173)"/>
<rect x="1134" y="568" width="573" height="178" transform="rotate(-90 1134 568)" fill="url(#paint2_linear_16183_29173)"/>
<rect x="1312" y="57.0001" width="1312" height="62.0001" transform="rotate(180 1312 57.0001)" fill="url(#paint3_linear_16183_29173)"/>
</g>
<defs>
<linearGradient id="paint0_linear_16183_29173" x1="668" y1="473" x2="668" y2="572.449" gradientUnits="userSpaceOnUse">
<stop stop-color="#222222" stop-opacity="0"/>
<stop offset="1" stop-color="#222222"/>
</linearGradient>
<linearGradient id="paint1_linear_16183_29173" x1="464.5" y1="-4.99988" x2="464.5" y2="162" gradientUnits="userSpaceOnUse">
<stop stop-color="#222222" stop-opacity="0"/>
<stop offset="1" stop-color="#222222"/>
</linearGradient>
<linearGradient id="paint2_linear_16183_29173" x1="1420.5" y1="568" x2="1420.5" y2="735" gradientUnits="userSpaceOnUse">
<stop stop-color="#222222" stop-opacity="0"/>
<stop offset="1" stop-color="#222222"/>
</linearGradient>
<linearGradient id="paint3_linear_16183_29173" x1="1968" y1="57.0001" x2="1968" y2="115.169" gradientUnits="userSpaceOnUse">
<stop stop-color="#222222" stop-opacity="0"/>
<stop offset="1" stop-color="#222222"/>
</linearGradient>
<clipPath id="clip0_16183_29173">
<path d="M0 40C0 17.9086 17.9086 0 40 0H1272C1294.09 0 1312 17.9086 1312 40V534C1312 556.091 1294.09 574 1272 574H40C17.9086 574 0 556.091 0 534V40Z" fill="white"/>
</clipPath>
</defs>
</svg>
