<svg width="1344" height="732" viewBox="0 0 1344 732" fill="none" xmlns="http://www.w3.org/2000/svg">
<g filter="url(#filter0_d_16183_29172)">
<g clip-path="url(#clip0_16183_29172)">
<mask id="path-1-inside-1_16183_29172" fill="white">
<path d="M16 44C16 21.9086 33.9086 4 56 4H1288C1310.09 4 1328 21.9086 1328 44V664C1328 686.091 1310.09 704 1288 704H56C33.9086 704 16 686.091 16 664V44Z"/>
</mask>
<path d="M16 44C16 21.9086 33.9086 4 56 4H1288C1310.09 4 1328 21.9086 1328 44V664C1328 686.091 1310.09 704 1288 704H56C33.9086 704 16 686.091 16 664V44Z" fill="#F3F3F3"/>
<rect x="16.5" y="-104.5" width="108.337" height="108.337" stroke="#DCDCDC"/>
<rect x="125.837" y="-104.5" width="108.337" height="108.337" stroke="#DCDCDC"/>
<rect x="235.163" y="-104.5" width="108.337" height="108.337" stroke="#DCDCDC"/>
<rect x="344.5" y="-104.5" width="108.337" height="108.337" stroke="#DCDCDC"/>
<rect x="453.837" y="-104.5" width="108.337" height="108.337" stroke="#DCDCDC"/>
<rect x="563.163" y="-104.5" width="108.337" height="108.337" stroke="#DCDCDC"/>
<rect x="672.5" y="-104.5" width="108.337" height="108.337" stroke="#DCDCDC"/>
<rect x="781.825" y="-104.5" width="108.337" height="108.337" stroke="#DCDCDC"/>
<rect x="891.163" y="-104.5" width="108.337" height="108.337" stroke="#DCDCDC"/>
<rect x="1000.5" y="-104.5" width="108.337" height="108.337" stroke="#DCDCDC"/>
<rect x="1109.83" y="-104.5" width="108.337" height="108.337" stroke="#DCDCDC"/>
<mask id="path-14-inside-2_16183_29172" fill="white">
<path d="M1218.66 -105H1328V4.33739H1218.66V-105Z"/>
</mask>
<path d="M1328 4.33739V3.33739H1218.66V4.33739V5.33739H1328V4.33739Z" fill="#DCDCDC" mask="url(#path-14-inside-2_16183_29172)"/>
<rect x="16.5" y="4.83765" width="108.337" height="108.337" stroke="#DCDCDC"/>
<mask id="path-17-inside-3_16183_29172" fill="white">
<path d="M1109.33 4.33765H1218.66V113.675H1109.33V4.33765Z"/>
</mask>
<path d="M1218.66 4.33765H1217.66V113.675H1218.66H1219.66V4.33765H1218.66Z" fill="#DCDCDC" mask="url(#path-17-inside-3_16183_29172)"/>
<mask id="path-19-inside-4_16183_29172" fill="white">
<path d="M1218.66 4.33765H1328V113.675H1218.66V4.33765Z"/>
</mask>
<path d="M1328 113.675V112.675H1218.66V113.675V114.675H1328V113.675Z" fill="#DCDCDC" mask="url(#path-19-inside-4_16183_29172)"/>
<rect x="16.5" y="114.163" width="108.337" height="108.337" stroke="#DCDCDC"/>
<mask id="path-22-inside-5_16183_29172" fill="white">
<path d="M1109.33 113.663H1218.66V223H1109.33V113.663Z"/>
</mask>
<path d="M1218.66 113.663H1217.66V223H1218.66H1219.66V113.663H1218.66Z" fill="#DCDCDC" mask="url(#path-22-inside-5_16183_29172)"/>
<mask id="path-24-inside-6_16183_29172" fill="white">
<path d="M1218.66 113.663H1328V223H1218.66V113.663Z"/>
</mask>
<path d="M1328 223V222H1218.66V223V224H1328V223Z" fill="#DCDCDC" mask="url(#path-24-inside-6_16183_29172)"/>
<rect x="16.5" y="223.5" width="108.337" height="108.337" stroke="#DCDCDC"/>
<mask id="path-27-inside-7_16183_29172" fill="white">
<path d="M125.337 223H234.675V332.338H125.337V223Z"/>
</mask>
<path d="M234.675 332.338V331.338H125.337V332.338V333.338H234.675V332.338Z" fill="#DCDCDC" mask="url(#path-27-inside-7_16183_29172)"/>
<mask id="path-29-inside-8_16183_29172" fill="white">
<path d="M234.663 223H344V332.338H234.663V223Z"/>
</mask>
<path d="M344 332.338V331.338H234.663V332.338V333.338H344V332.338Z" fill="#DCDCDC" mask="url(#path-29-inside-8_16183_29172)"/>
<mask id="path-31-inside-9_16183_29172" fill="white">
<path d="M344 223H453.337V332.338H344V223Z"/>
</mask>
<path d="M453.337 332.338V331.338H344V332.338V333.338H453.337V332.338Z" fill="#DCDCDC" mask="url(#path-31-inside-9_16183_29172)"/>
<mask id="path-33-inside-10_16183_29172" fill="white">
<path d="M453.337 223H562.675V332.338H453.337V223Z"/>
</mask>
<path d="M562.675 332.338V331.338H453.337V332.338V333.338H562.675V332.338Z" fill="#DCDCDC" mask="url(#path-33-inside-10_16183_29172)"/>
<mask id="path-35-inside-11_16183_29172" fill="white">
<path d="M562.663 223H672V332.338H562.663V223Z"/>
</mask>
<path d="M672 332.338V331.338H562.663V332.338V333.338H672V332.338Z" fill="#DCDCDC" mask="url(#path-35-inside-11_16183_29172)"/>
<mask id="path-37-inside-12_16183_29172" fill="white">
<path d="M672 223H781.337V332.338H672V223Z"/>
</mask>
<path d="M781.337 332.338V331.338H672V332.338V333.338H781.337V332.338Z" fill="#DCDCDC" mask="url(#path-37-inside-12_16183_29172)"/>
<mask id="path-39-inside-13_16183_29172" fill="white">
<path d="M781.325 223H890.663V332.338H781.325V223Z"/>
</mask>
<path d="M890.663 332.338V331.338H781.325V332.338V333.338H890.663V332.338Z" fill="#DCDCDC" mask="url(#path-39-inside-13_16183_29172)"/>
<mask id="path-41-inside-14_16183_29172" fill="white">
<path d="M890.663 223H1000V332.338H890.663V223Z"/>
</mask>
<path d="M1000 332.338V331.338H890.663V332.338V333.338H1000V332.338Z" fill="#DCDCDC" mask="url(#path-41-inside-14_16183_29172)"/>
<mask id="path-43-inside-15_16183_29172" fill="white">
<path d="M1000 223H1109.34V332.338H1000V223Z"/>
</mask>
<path d="M1109.34 332.338V331.338H1000V332.338V333.338H1109.34V332.338Z" fill="#DCDCDC" mask="url(#path-43-inside-15_16183_29172)"/>
<rect x="1109.83" y="223.5" width="108.337" height="108.337" stroke="#DCDCDC"/>
<mask id="path-46-inside-16_16183_29172" fill="white">
<path d="M1218.66 223H1328V332.338H1218.66V223Z"/>
</mask>
<path d="M1328 332.338V331.338H1218.66V332.338V333.338H1328V332.338Z" fill="#DCDCDC" mask="url(#path-46-inside-16_16183_29172)"/>
<rect x="16.5" y="332.837" width="108.337" height="108.337" stroke="#DCDCDC"/>
<rect x="125.837" y="332.837" width="108.337" height="108.337" stroke="#DCDCDC"/>
<rect x="125.837" y="223.841" width="108.337" height="108.337" stroke="#DCDCDC"/>
<rect x="125.837" y="114.394" width="108.337" height="108.337" stroke="#DCDCDC"/>
<rect x="125.837" y="4.94678" width="108.337" height="108.337" stroke="#DCDCDC"/>
<rect x="235.163" y="332.837" width="108.337" height="108.337" stroke="#DCDCDC"/>
<rect x="235.163" y="223.841" width="108.337" height="108.337" stroke="#DCDCDC"/>
<rect x="235.163" y="114.394" width="108.337" height="108.337" stroke="#DCDCDC"/>
<rect x="235.163" y="4.94678" width="108.337" height="108.337" stroke="#DCDCDC"/>
<rect x="344.5" y="332.837" width="108.337" height="108.337" stroke="#DCDCDC"/>
<rect x="344.5" y="223.841" width="108.337" height="108.337" stroke="#DCDCDC"/>
<rect x="344.5" y="114.394" width="108.337" height="108.337" stroke="#DCDCDC"/>
<rect x="344.5" y="4.94678" width="108.337" height="108.337" stroke="#DCDCDC"/>
<rect x="453.837" y="332.837" width="108.337" height="108.337" stroke="#DCDCDC"/>
<rect x="453.837" y="223.841" width="108.337" height="108.337" stroke="#DCDCDC"/>
<rect x="453.837" y="114.394" width="108.337" height="108.337" stroke="#DCDCDC"/>
<rect x="453.837" y="4.94678" width="108.337" height="108.337" stroke="#DCDCDC"/>
<rect x="563.163" y="332.837" width="108.337" height="108.337" stroke="#DCDCDC"/>
<rect x="563.163" y="223.841" width="108.337" height="108.337" stroke="#DCDCDC"/>
<rect x="563.163" y="114.394" width="108.337" height="108.337" stroke="#DCDCDC"/>
<rect x="563.163" y="4.94678" width="108.337" height="108.337" stroke="#DCDCDC"/>
<rect x="672.5" y="332.837" width="108.337" height="108.337" stroke="#DCDCDC"/>
<rect x="672.5" y="223.841" width="108.337" height="108.337" stroke="#DCDCDC"/>
<rect x="672.5" y="114.394" width="108.337" height="108.337" stroke="#DCDCDC"/>
<rect x="672.5" y="4.94678" width="108.337" height="108.337" stroke="#DCDCDC"/>
<rect x="781.825" y="332.837" width="108.337" height="108.337" stroke="#DCDCDC"/>
<rect x="781.825" y="223.841" width="108.337" height="108.337" stroke="#DCDCDC"/>
<rect x="781.825" y="114.394" width="108.337" height="108.337" stroke="#DCDCDC"/>
<rect x="781.825" y="4.94678" width="108.337" height="108.337" stroke="#DCDCDC"/>
<rect x="891.163" y="332.837" width="108.337" height="108.337" stroke="#DCDCDC"/>
<rect x="891.163" y="223.841" width="108.337" height="108.337" stroke="#DCDCDC"/>
<rect x="891.163" y="114.394" width="108.337" height="108.337" stroke="#DCDCDC"/>
<rect x="891.163" y="4.94678" width="108.337" height="108.337" stroke="#DCDCDC"/>
<rect x="1000.5" y="332.837" width="108.337" height="108.337" stroke="#DCDCDC"/>
<rect x="1000.5" y="223.841" width="108.337" height="108.337" stroke="#DCDCDC"/>
<rect x="1000.5" y="114.394" width="108.337" height="108.337" stroke="#DCDCDC"/>
<rect x="1000.5" y="4.94678" width="108.337" height="108.337" stroke="#DCDCDC"/>
<rect x="1109.83" y="332.837" width="108.337" height="108.337" stroke="#DCDCDC"/>
<rect x="1109.83" y="223.841" width="108.337" height="108.337" stroke="#DCDCDC"/>
<rect x="1109.83" y="114.394" width="108.337" height="108.337" stroke="#DCDCDC"/>
<rect x="1109.83" y="4.94678" width="108.337" height="108.337" stroke="#DCDCDC"/>
<mask id="path-89-inside-17_16183_29172" fill="white">
<path d="M1218.66 332.337H1328V441.675H1218.66V332.337Z"/>
</mask>
<path d="M1328 441.675V440.675H1218.66V441.675V442.675H1328V441.675Z" fill="#DCDCDC" mask="url(#path-89-inside-17_16183_29172)"/>
<rect x="16.5" y="442.162" width="108.337" height="108.337" stroke="#DCDCDC"/>
<rect x="125.837" y="442.162" width="108.337" height="108.337" stroke="#DCDCDC"/>
<rect x="235.163" y="442.162" width="108.337" height="108.337" stroke="#DCDCDC"/>
<rect x="344.5" y="442.162" width="108.337" height="108.337" stroke="#DCDCDC"/>
<rect x="453.837" y="442.162" width="108.337" height="108.337" stroke="#DCDCDC"/>
<rect x="563.163" y="442.162" width="108.337" height="108.337" stroke="#DCDCDC"/>
<rect x="672.5" y="442.162" width="108.337" height="108.337" stroke="#DCDCDC"/>
<rect x="781.825" y="442.162" width="108.337" height="108.337" stroke="#DCDCDC"/>
<rect x="891.163" y="442.162" width="108.337" height="108.337" stroke="#DCDCDC"/>
<rect x="1000.5" y="442.162" width="108.337" height="108.337" stroke="#DCDCDC"/>
<rect x="1109.83" y="442.162" width="108.337" height="108.337" stroke="#DCDCDC"/>
<mask id="path-102-inside-18_16183_29172" fill="white">
<path d="M1218.66 441.662H1328V551H1218.66V441.662Z"/>
</mask>
<path d="M1328 551V550H1218.66V551V552H1328V551Z" fill="#DCDCDC" mask="url(#path-102-inside-18_16183_29172)"/>
<rect x="16.5" y="551.5" width="108.337" height="108.337" stroke="#DCDCDC"/>
<rect x="125.837" y="551.5" width="108.337" height="108.337" stroke="#DCDCDC"/>
<rect x="235.163" y="551.5" width="108.337" height="108.337" stroke="#DCDCDC"/>
<rect x="344.5" y="551.5" width="108.337" height="108.337" stroke="#DCDCDC"/>
<rect x="453.837" y="551.5" width="108.337" height="108.337" stroke="#DCDCDC"/>
<rect x="563.163" y="551.5" width="108.337" height="108.337" stroke="#DCDCDC"/>
<rect x="672.5" y="551.5" width="108.337" height="108.337" stroke="#DCDCDC"/>
<rect x="781.825" y="551.5" width="108.337" height="108.337" stroke="#DCDCDC"/>
<rect x="891.163" y="551.5" width="108.337" height="108.337" stroke="#DCDCDC"/>
<rect x="1000.5" y="551.5" width="108.337" height="108.337" stroke="#DCDCDC"/>
<rect x="1109.83" y="551.5" width="108.337" height="108.337" stroke="#DCDCDC"/>
<mask id="path-115-inside-19_16183_29172" fill="white">
<path d="M1218.66 551H1328V660.337H1218.66V551Z"/>
</mask>
<path d="M1328 660.337V659.337H1218.66V660.337V661.337H1328V660.337Z" fill="#DCDCDC" mask="url(#path-115-inside-19_16183_29172)"/>
<mask id="path-117-inside-20_16183_29172" fill="white">
<path d="M16 660.325H125.337V769.662H16V660.325Z"/>
</mask>
<path d="M125.337 660.325H124.337V769.662H125.337H126.337V660.325H125.337Z" fill="#DCDCDC" mask="url(#path-117-inside-20_16183_29172)"/>
<mask id="path-119-inside-21_16183_29172" fill="white">
<path d="M125.337 660.325H234.675V769.662H125.337V660.325Z"/>
</mask>
<path d="M234.675 660.325H233.675V769.662H234.675H235.675V660.325H234.675Z" fill="#DCDCDC" mask="url(#path-119-inside-21_16183_29172)"/>
<mask id="path-121-inside-22_16183_29172" fill="white">
<path d="M234.663 660.325H344V769.662H234.663V660.325Z"/>
</mask>
<path d="M344 660.325H343V769.662H344H345V660.325H344Z" fill="#DCDCDC" mask="url(#path-121-inside-22_16183_29172)"/>
<mask id="path-123-inside-23_16183_29172" fill="white">
<path d="M344 660.325H453.337V769.662H344V660.325Z"/>
</mask>
<path d="M453.337 660.325H452.337V769.662H453.337H454.337V660.325H453.337Z" fill="#DCDCDC" mask="url(#path-123-inside-23_16183_29172)"/>
<mask id="path-125-inside-24_16183_29172" fill="white">
<path d="M453.337 660.325H562.675V769.662H453.337V660.325Z"/>
</mask>
<path d="M562.675 660.325H561.675V769.662H562.675H563.675V660.325H562.675Z" fill="#DCDCDC" mask="url(#path-125-inside-24_16183_29172)"/>
<mask id="path-127-inside-25_16183_29172" fill="white">
<path d="M562.663 660.325H672V769.662H562.663V660.325Z"/>
</mask>
<path d="M672 660.325H671V769.662H672H673V660.325H672Z" fill="#DCDCDC" mask="url(#path-127-inside-25_16183_29172)"/>
<mask id="path-129-inside-26_16183_29172" fill="white">
<path d="M672 660.325H781.337V769.662H672V660.325Z"/>
</mask>
<path d="M781.337 660.325H780.337V769.662H781.337H782.337V660.325H781.337Z" fill="#DCDCDC" mask="url(#path-129-inside-26_16183_29172)"/>
<mask id="path-131-inside-27_16183_29172" fill="white">
<path d="M781.325 660.325H890.663V769.662H781.325V660.325Z"/>
</mask>
<path d="M890.663 660.325H889.663V769.662H890.663H891.663V660.325H890.663Z" fill="#DCDCDC" mask="url(#path-131-inside-27_16183_29172)"/>
<mask id="path-133-inside-28_16183_29172" fill="white">
<path d="M890.663 660.325H1000V769.662H890.663V660.325Z"/>
</mask>
<path d="M1000 660.325H999V769.662H1000H1001V660.325H1000Z" fill="#DCDCDC" mask="url(#path-133-inside-28_16183_29172)"/>
<mask id="path-135-inside-29_16183_29172" fill="white">
<path d="M1000 660.325H1109.34V769.662H1000V660.325Z"/>
</mask>
<path d="M1109.34 660.325H1108.34V769.662H1109.34H1110.34V660.325H1109.34Z" fill="#DCDCDC" mask="url(#path-135-inside-29_16183_29172)"/>
<mask id="path-137-inside-30_16183_29172" fill="white">
<path d="M1109.33 660.325H1218.66V769.662H1109.33V660.325Z"/>
</mask>
<path d="M1218.66 660.325H1217.66V769.662H1218.66H1219.66V660.325H1218.66Z" fill="#DCDCDC" mask="url(#path-137-inside-30_16183_29172)"/>
<g filter="url(#filter1_f_16183_29172)">
<circle cx="636" cy="211" r="383" fill="#F5F5F5" fill-opacity="0.7"/>
</g>
<g filter="url(#filter2_f_16183_29172)">
<circle cx="235" cy="32" r="332" fill="#F5F5F5" fill-opacity="0.7"/>
</g>
<g filter="url(#filter3_f_16183_29172)">
<circle cx="1085" cy="50" r="261" fill="#F5F5F5" fill-opacity="0.7"/>
</g>
</g>
<path d="M56 4V6H1288V4V2H56V4ZM1328 44H1326V664H1328H1330V44H1328ZM1288 704V702H56V704V706H1288V704ZM16 664H18V44H16H14V664H16ZM56 704V702C35.0131 702 18 684.987 18 664H16H14C14 687.196 32.804 706 56 706V704ZM1328 664H1326C1326 684.987 1308.99 702 1288 702V704V706C1311.2 706 1330 687.196 1330 664H1328ZM1288 4V6C1308.99 6 1326 23.0132 1326 44H1328H1330C1330 20.804 1311.2 2 1288 2V4ZM56 4V2C32.804 2 14 20.804 14 44H16H18C18 23.0132 35.0132 6 56 6V4Z" fill="white" mask="url(#path-1-inside-1_16183_29172)"/>
</g>
<defs>
<filter id="filter0_d_16183_29172" x="0" y="0" width="1344" height="732" filterUnits="userSpaceOnUse" color-interpolation-filters="sRGB">
<feFlood flood-opacity="0" result="BackgroundImageFix"/>
<feColorMatrix in="SourceAlpha" type="matrix" values="0 0 0 0 0 0 0 0 0 0 0 0 0 0 0 0 0 0 127 0" result="hardAlpha"/>
<feMorphology radius="4" operator="erode" in="SourceAlpha" result="effect1_dropShadow_16183_29172"/>
<feOffset dy="12"/>
<feGaussianBlur stdDeviation="10"/>
<feComposite in2="hardAlpha" operator="out"/>
<feColorMatrix type="matrix" values="0 0 0 0 0.0784314 0 0 0 0 0.0784314 0 0 0 0 0.0784314 0 0 0 0.1 0"/>
<feBlend mode="normal" in2="BackgroundImageFix" result="effect1_dropShadow_16183_29172"/>
<feBlend mode="normal" in="SourceGraphic" in2="effect1_dropShadow_16183_29172" result="shape"/>
</filter>
<filter id="filter1_f_16183_29172" x="202.5" y="-222.5" width="867" height="867" filterUnits="userSpaceOnUse" color-interpolation-filters="sRGB">
<feFlood flood-opacity="0" result="BackgroundImageFix"/>
<feBlend mode="normal" in="SourceGraphic" in2="BackgroundImageFix" result="shape"/>
<feGaussianBlur stdDeviation="25.25" result="effect1_foregroundBlur_16183_29172"/>
</filter>
<filter id="filter2_f_16183_29172" x="-147.5" y="-350.5" width="765" height="765" filterUnits="userSpaceOnUse" color-interpolation-filters="sRGB">
<feFlood flood-opacity="0" result="BackgroundImageFix"/>
<feBlend mode="normal" in="SourceGraphic" in2="BackgroundImageFix" result="shape"/>
<feGaussianBlur stdDeviation="25.25" result="effect1_foregroundBlur_16183_29172"/>
</filter>
<filter id="filter3_f_16183_29172" x="820" y="-215" width="530" height="530" filterUnits="userSpaceOnUse" color-interpolation-filters="sRGB">
<feFlood flood-opacity="0" result="BackgroundImageFix"/>
<feBlend mode="normal" in="SourceGraphic" in2="BackgroundImageFix" result="shape"/>
<feGaussianBlur stdDeviation="2" result="effect1_foregroundBlur_16183_29172"/>
</filter>
<clipPath id="clip0_16183_29172">
<path d="M16 44C16 21.9086 33.9086 4 56 4H1288C1310.09 4 1328 21.9086 1328 44V664C1328 686.091 1310.09 704 1288 704H56C33.9086 704 16 686.091 16 664V44Z" fill="white"/>
</clipPath>
</defs>
</svg>
