<svg width="148" height="32" viewBox="0 0 148 32" fill="none" xmlns="http://www.w3.org/2000/svg">
<path fill-rule="evenodd" clip-rule="evenodd" d="M11.5302 10.2553C7.5592 10.2553 4.34009 13.4788 4.34009 17.4553C4.34009 21.4317 7.5592 24.6553 11.5302 24.6553C15.5011 24.6553 18.7203 21.4317 18.7203 17.4553C18.7203 13.4788 15.5011 10.2553 11.5302 10.2553ZM2.19836 17.4553C2.19836 12.2943 6.37636 8.11059 11.5302 8.11059C16.684 8.11059 20.862 12.2943 20.862 17.4553C20.862 22.6162 16.684 26.7999 11.5302 26.7999C6.37636 26.7999 2.19836 22.6162 2.19836 17.4553Z" fill="#FCFCFC"/>
<path d="M23.7686 7.03825C23.7686 8.05351 22.9467 8.87655 21.9328 8.87655C20.919 8.87655 20.0971 8.05351 20.0971 7.03825C20.0971 6.02299 20.919 5.19995 21.9328 5.19995C22.9467 5.19995 23.7686 6.02299 23.7686 7.03825Z" fill="#FCFCFC"/>
<path d="M139.895 22.9947C138.833 22.9947 137.913 22.7533 137.134 22.2707C136.369 21.7881 135.774 21.1067 135.35 20.2266C134.939 19.3323 134.734 18.289 134.734 17.0966C134.734 15.9042 134.939 14.8679 135.35 13.9878C135.774 13.1077 136.362 12.4263 137.113 11.9437C137.877 11.4469 138.776 11.1985 139.81 11.1985C140.787 11.1985 141.651 11.4327 142.401 11.9011C143.152 12.3554 143.74 13.0225 144.164 13.9026C144.589 14.7827 144.802 15.8545 144.802 17.1178V17.6502H136.603C136.674 18.8568 136.992 19.7653 137.559 20.3756C138.139 20.986 138.918 21.2912 139.895 21.2912C140.631 21.2912 141.233 21.1209 141.701 20.7802C142.182 20.4253 142.515 19.964 142.699 19.3962L144.61 19.5452C144.313 20.5531 143.747 21.3835 142.911 22.0365C142.09 22.6753 141.085 22.9947 139.895 22.9947ZM136.603 16.0745H142.847C142.763 14.9815 142.444 14.1794 141.892 13.6684C141.339 13.1574 140.646 12.9019 139.81 12.9019C138.946 12.9019 138.231 13.1716 137.665 13.711C137.113 14.2362 136.759 15.0241 136.603 16.0745Z" fill="#FCFCFC"/>
<path d="M128.625 22.7391C126.458 22.7391 125.375 21.7029 125.375 19.6304V13.0296H121.658V11.454H125.375V8.81366H127.159V11.454H131.641V13.0296H127.159V19.6304C127.159 20.6524 127.648 21.1635 128.625 21.1635H131.641V22.7391H128.625Z" fill="#FCFCFC"/>
<path d="M112.745 22.9947C112.037 22.9947 111.4 22.8669 110.833 22.6114C110.267 22.3559 109.821 22.001 109.495 21.5467C109.17 21.0783 109.007 20.5389 109.007 19.9285C109.007 18.9632 109.29 18.218 109.856 17.6928C110.437 17.1533 111.343 16.763 112.575 16.5217L116.356 15.7551C116.356 14.7898 116.136 14.073 115.697 13.6045C115.273 13.1361 114.657 12.9019 113.85 12.9019C113.071 12.9019 112.462 13.0793 112.023 13.4342C111.584 13.7749 111.279 14.2717 111.11 14.9247L109.219 14.7756C109.432 13.711 109.934 12.8522 110.727 12.1992C111.534 11.532 112.575 11.1985 113.85 11.1985C115.209 11.1985 116.264 11.6101 117.014 12.4334C117.765 13.2426 118.14 14.364 118.14 15.7977V20.4821C118.14 20.7376 118.197 20.9151 118.31 21.0144C118.423 21.1138 118.593 21.1635 118.82 21.1635H119.542V22.7391C119.315 22.7675 119.004 22.7817 118.607 22.7817C117.984 22.7817 117.489 22.654 117.121 22.3985C116.767 22.1429 116.533 21.7242 116.42 21.1422C116.122 21.6958 115.634 22.1429 114.954 22.4836C114.289 22.8243 113.552 22.9947 112.745 22.9947ZM112.915 21.419C114.062 21.419 114.919 21.128 115.485 20.546C116.066 19.964 116.356 19.2045 116.356 18.2677V17.2882L112.915 17.9696C112.15 18.1115 111.619 18.3315 111.322 18.6296C111.025 18.9135 110.876 19.2897 110.876 19.7582C110.876 20.2834 111.053 20.695 111.407 20.9931C111.775 21.277 112.278 21.419 112.915 21.419Z" fill="#FCFCFC"/>
<path d="M96.3982 22.7391V21.1635H100.922V10.6448C100.922 10.1906 100.795 9.83572 100.54 9.5802C100.285 9.32469 99.9312 9.19693 99.478 9.19693H96.823V7.62127H99.563C101.659 7.62127 102.707 8.67171 102.707 10.7726V21.1635H106.594V22.7391H96.3982Z" fill="#FCFCFC"/>
<path d="M88.7599 22.9947C87.7262 22.9947 86.8199 22.7533 86.0411 22.2707C85.2764 21.7881 84.6817 21.1067 84.2569 20.2266C83.8321 19.3323 83.6197 18.289 83.6197 17.0966C83.6197 15.89 83.8321 14.8466 84.2569 13.9665C84.6817 13.0864 85.2764 12.405 86.0411 11.9224C86.8199 11.4398 87.7262 11.1985 88.7599 11.1985C89.7936 11.1985 90.6928 11.4398 91.4574 11.9224C92.2362 12.405 92.8381 13.0864 93.2629 13.9665C93.6877 14.8466 93.9001 15.89 93.9001 17.0966C93.9001 18.289 93.6877 19.3323 93.2629 20.2266C92.8381 21.1067 92.2362 21.7881 91.4574 22.2707C90.6928 22.7533 89.7936 22.9947 88.7599 22.9947ZM88.7599 21.2912C89.7936 21.2912 90.5936 20.9222 91.1601 20.184C91.7406 19.4317 92.0309 18.4025 92.0309 17.0966C92.0309 15.7906 91.7406 14.7685 91.1601 14.0304C90.5936 13.2781 89.7936 12.9019 88.7599 12.9019C87.7262 12.9019 86.919 13.2781 86.3385 14.0304C85.772 14.7685 85.4888 15.7906 85.4888 17.0966C85.4888 18.4025 85.772 19.4317 86.3385 20.184C86.919 20.9222 87.7262 21.2912 88.7599 21.2912Z" fill="#FCFCFC"/>
<path d="M76.2363 22.9947C75.2592 22.9947 74.4167 22.8243 73.7087 22.4836C73.0006 22.1429 72.4413 21.6887 72.0307 21.1209C71.6342 20.5389 71.4076 19.893 71.351 19.1832L73.2201 19.0555C73.3334 19.7511 73.6379 20.2976 74.1335 20.695C74.6432 21.0925 75.3442 21.2912 76.2363 21.2912C77.0717 21.2912 77.716 21.1706 78.1692 20.9293C78.6365 20.6879 78.8701 20.3118 78.8701 19.8007C78.8701 19.4742 78.7922 19.2045 78.6365 18.9916C78.4807 18.7787 78.1904 18.6012 77.7656 18.4593C77.3408 18.3031 76.7177 18.1541 75.8964 18.0121C74.8061 17.8134 73.9494 17.5721 73.3263 17.2882C72.7174 16.9901 72.2855 16.621 72.0307 16.181C71.7758 15.7409 71.6483 15.2157 71.6483 14.6053C71.6483 13.6258 72.0165 12.8167 72.7528 12.1779C73.4892 11.5249 74.5441 11.1985 75.9177 11.1985C76.8522 11.1985 77.6311 11.3688 78.2541 11.7095C78.8913 12.036 79.394 12.476 79.7622 13.0296C80.1304 13.5691 80.3711 14.1652 80.4844 14.8182L78.6152 14.946C78.4878 14.3498 78.1904 13.8601 77.7231 13.4768C77.27 13.0935 76.6611 12.9019 75.8964 12.9019C75.0751 12.9019 74.4662 13.0651 74.0697 13.3916C73.6733 13.7181 73.475 14.1227 73.475 14.6053C73.475 15.1731 73.6874 15.5777 74.1122 15.819C74.537 16.0603 75.2592 16.2661 76.2788 16.4365C77.4399 16.621 78.3391 16.8623 78.9763 17.1604C79.6135 17.4443 80.0596 17.7992 80.3145 18.2251C80.5693 18.6509 80.6968 19.1761 80.6968 19.8007C80.6968 20.4679 80.4985 21.0428 80.102 21.5255C79.7197 21.9939 79.1887 22.3559 78.509 22.6114C77.8435 22.8669 77.0859 22.9947 76.2363 22.9947Z" fill="#FCFCFC"/>
<path d="M58.615 24.4V22.7391H67.9608V24.4H58.615Z" fill="#FCFCFC"/>
<path d="M45.8789 22.7391V21.1635H50.4032V13.0296H46.0914V11.454H52.1874V21.1635H56.0744V22.7391H45.8789ZM50.2332 9.68667V7.59998H52.1024V9.68667H50.2332Z" fill="#FCFCFC"/>
<path d="M37.03 22.9947C35.9113 22.9947 35.0192 22.6185 34.3537 21.8661C33.6881 21.0996 33.3553 20.0492 33.3553 18.7148V11.454H35.1395V18.2251C35.1395 19.3181 35.3307 20.1272 35.713 20.6524C36.1095 21.1635 36.7113 21.419 37.5185 21.419C38.3964 21.419 39.0903 21.1351 39.6001 20.5673C40.1098 19.9853 40.3647 19.1903 40.3647 18.1825V11.454H42.1489V22.7391H40.4497V20.908C39.8266 22.2991 38.6867 22.9947 37.03 22.9947Z" fill="#FCFCFC"/>
</svg>
