<svg width="161" height="40" viewBox="0 0 161 40" fill="none" xmlns="http://www.w3.org/2000/svg">
<path d="M146.895 26.9947C145.833 26.9947 144.913 26.7533 144.134 26.2707C143.369 25.7881 142.774 25.1067 142.35 24.2266C141.939 23.3323 141.734 22.289 141.734 21.0966C141.734 19.9042 141.939 18.8679 142.35 17.9878C142.774 17.1077 143.362 16.4263 144.113 15.9437C144.877 15.4469 145.776 15.1985 146.81 15.1985C147.787 15.1985 148.651 15.4327 149.401 15.9011C150.152 16.3554 150.74 17.0225 151.164 17.9026C151.589 18.7827 151.802 19.8545 151.802 21.1178V21.6502H143.603C143.674 22.8568 143.992 23.7653 144.559 24.3756C145.139 24.986 145.918 25.2912 146.895 25.2912C147.631 25.2912 148.233 25.1209 148.701 24.7802C149.182 24.4253 149.515 23.964 149.699 23.3962L151.61 23.5452C151.313 24.5531 150.747 25.3835 149.911 26.0365C149.09 26.6753 148.085 26.9947 146.895 26.9947ZM143.603 20.0745H149.847C149.763 18.9815 149.444 18.1794 148.892 17.6684C148.339 17.1574 147.646 16.9019 146.81 16.9019C145.946 16.9019 145.231 17.1716 144.665 17.711C144.113 18.2362 143.759 19.0241 143.603 20.0745Z" fill="#6584F6"/>
<path d="M135.625 26.7391C133.458 26.7391 132.375 25.7029 132.375 23.6304V17.0296H128.658V15.454H132.375V12.8137H134.159V15.454H138.641V17.0296H134.159V23.6304C134.159 24.6524 134.648 25.1635 135.625 25.1635H138.641V26.7391H135.625Z" fill="#6584F6"/>
<path d="M119.745 26.9947C119.037 26.9947 118.4 26.8669 117.833 26.6114C117.267 26.3559 116.821 26.001 116.495 25.5467C116.17 25.0783 116.007 24.5389 116.007 23.9285C116.007 22.9632 116.29 22.218 116.856 21.6928C117.437 21.1533 118.343 20.763 119.575 20.5217L123.356 19.7551C123.356 18.7898 123.136 18.073 122.697 17.6045C122.273 17.1361 121.657 16.9019 120.85 16.9019C120.071 16.9019 119.462 17.0793 119.023 17.4342C118.584 17.7749 118.279 18.2717 118.11 18.9247L116.219 18.7756C116.432 17.711 116.934 16.8522 117.727 16.1992C118.534 15.532 119.575 15.1985 120.85 15.1985C122.209 15.1985 123.264 15.6101 124.014 16.4334C124.765 17.2426 125.14 18.364 125.14 19.7977V24.4821C125.14 24.7376 125.197 24.9151 125.31 25.0144C125.423 25.1138 125.593 25.1635 125.82 25.1635H126.542V26.7391C126.315 26.7675 126.004 26.7817 125.607 26.7817C124.984 26.7817 124.489 26.654 124.121 26.3985C123.767 26.1429 123.533 25.7242 123.42 25.1422C123.122 25.6958 122.634 26.1429 121.954 26.4836C121.289 26.8243 120.552 26.9947 119.745 26.9947ZM119.915 25.419C121.062 25.419 121.919 25.128 122.485 24.546C123.066 23.964 123.356 23.2045 123.356 22.2677V21.2882L119.915 21.9696C119.15 22.1115 118.619 22.3315 118.322 22.6296C118.025 22.9135 117.876 23.2897 117.876 23.7582C117.876 24.2834 118.053 24.695 118.407 24.9931C118.775 25.277 119.278 25.419 119.915 25.419Z" fill="#6584F6"/>
<path d="M103.398 26.7391V25.1635H107.922V14.6448C107.922 14.1906 107.795 13.8357 107.54 13.5802C107.285 13.3247 106.931 13.1969 106.478 13.1969H103.823V11.6213H106.563C108.659 11.6213 109.707 12.6717 109.707 14.7726V25.1635H113.594V26.7391H103.398Z" fill="#6584F6"/>
<path d="M95.7599 26.9947C94.7262 26.9947 93.8199 26.7533 93.0411 26.2707C92.2764 25.7881 91.6817 25.1067 91.2569 24.2266C90.8321 23.3323 90.6197 22.289 90.6197 21.0966C90.6197 19.89 90.8321 18.8466 91.2569 17.9665C91.6817 17.0864 92.2764 16.405 93.0411 15.9224C93.8199 15.4398 94.7262 15.1985 95.7599 15.1985C96.7936 15.1985 97.6928 15.4398 98.4574 15.9224C99.2362 16.405 99.8381 17.0864 100.263 17.9665C100.688 18.8466 100.9 19.89 100.9 21.0966C100.9 22.289 100.688 23.3323 100.263 24.2266C99.8381 25.1067 99.2362 25.7881 98.4574 26.2707C97.6928 26.7533 96.7936 26.9947 95.7599 26.9947ZM95.7599 25.2912C96.7936 25.2912 97.5936 24.9222 98.1601 24.184C98.7406 23.4317 99.0309 22.4025 99.0309 21.0966C99.0309 19.7906 98.7406 18.7685 98.1601 18.0304C97.5936 17.2781 96.7936 16.9019 95.7599 16.9019C94.7262 16.9019 93.919 17.2781 93.3385 18.0304C92.772 18.7685 92.4888 19.7906 92.4888 21.0966C92.4888 22.4025 92.772 23.4317 93.3385 24.184C93.919 24.9222 94.7262 25.2912 95.7599 25.2912Z" fill="#6584F6"/>
<path d="M83.2363 26.9947C82.2592 26.9947 81.4167 26.8243 80.7087 26.4836C80.0006 26.1429 79.4413 25.6887 79.0307 25.1209C78.6342 24.5389 78.4076 23.893 78.351 23.1832L80.2201 23.0555C80.3334 23.7511 80.6379 24.2976 81.1335 24.695C81.6432 25.0925 82.3442 25.2912 83.2363 25.2912C84.0717 25.2912 84.716 25.1706 85.1692 24.9293C85.6365 24.6879 85.8701 24.3118 85.8701 23.8007C85.8701 23.4742 85.7922 23.2045 85.6365 22.9916C85.4807 22.7787 85.1904 22.6012 84.7656 22.4593C84.3408 22.3031 83.7177 22.1541 82.8964 22.0121C81.8061 21.8134 80.9494 21.5721 80.3263 21.2882C79.7174 20.9901 79.2855 20.621 79.0307 20.181C78.7758 19.7409 78.6483 19.2157 78.6483 18.6053C78.6483 17.6258 79.0165 16.8167 79.7528 16.1779C80.4892 15.5249 81.5441 15.1985 82.9177 15.1985C83.8522 15.1985 84.6311 15.3688 85.2541 15.7095C85.8913 16.036 86.394 16.476 86.7622 17.0296C87.1304 17.5691 87.3711 18.1652 87.4844 18.8182L85.6152 18.946C85.4878 18.3498 85.1904 17.8601 84.7231 17.4768C84.27 17.0935 83.6611 16.9019 82.8964 16.9019C82.0751 16.9019 81.4662 17.0651 81.0697 17.3916C80.6733 17.7181 80.475 18.1227 80.475 18.6053C80.475 19.1731 80.6874 19.5777 81.1122 19.819C81.537 20.0603 82.2592 20.2661 83.2788 20.4365C84.4399 20.621 85.3391 20.8623 85.9763 21.1604C86.6135 21.4443 87.0596 21.7992 87.3145 22.2251C87.5693 22.6509 87.6968 23.1761 87.6968 23.8007C87.6968 24.4679 87.4985 25.0428 87.102 25.5255C86.7197 25.9939 86.1887 26.3559 85.509 26.6114C84.8435 26.8669 84.0859 26.9947 83.2363 26.9947Z" fill="#6584F6"/>
<path d="M65.615 28.4V26.7391H74.9608V28.4H65.615Z" fill="#6584F6"/>
<path d="M52.8789 26.7391V25.1635H57.4032V17.0296H53.0914V15.454H59.1874V25.1635H63.0744V26.7391H52.8789ZM57.2332 13.6867V11.6H59.1024V13.6867H57.2332Z" fill="#6584F6"/>
<path d="M44.03 26.9947C42.9113 26.9947 42.0192 26.6185 41.3537 25.8661C40.6881 25.0996 40.3553 24.0492 40.3553 22.7148V15.454H42.1395V22.2251C42.1395 23.3181 42.3307 24.1272 42.713 24.6524C43.1095 25.1635 43.7113 25.419 44.5185 25.419C45.3964 25.419 46.0903 25.1351 46.6001 24.5673C47.1098 23.9853 47.3647 23.1903 47.3647 22.1825V15.454H49.1489V26.7391H47.4497V24.908C46.8266 26.2991 45.6867 26.9947 44.03 26.9947Z" fill="#6584F6"/>
<path fill-rule="evenodd" clip-rule="evenodd" d="M18.5302 14.2553C14.5592 14.2553 11.3401 17.4788 11.3401 21.4553C11.3401 25.4317 14.5592 28.6553 18.5302 28.6553C22.5011 28.6553 25.7203 25.4317 25.7203 21.4553C25.7203 17.4788 22.5011 14.2553 18.5302 14.2553ZM9.19836 21.4553C9.19836 16.2943 13.3764 12.1106 18.5302 12.1106C23.684 12.1106 27.862 16.2943 27.862 21.4553C27.862 26.6162 23.684 30.7999 18.5302 30.7999C13.3764 30.7999 9.19836 26.6162 9.19836 21.4553Z" fill="#6584F6"/>
<path d="M30.7686 11.0382C30.7686 12.0535 29.9467 12.8765 28.9328 12.8765C27.919 12.8765 27.0971 12.0535 27.0971 11.0382C27.0971 10.023 27.919 9.19995 28.9328 9.19995C29.9467 9.19995 30.7686 10.023 30.7686 11.0382Z" fill="#6584F6"/>
</svg>
