<svg width="176" height="88" viewBox="0 0 176 88" fill="none" xmlns="http://www.w3.org/2000/svg">
<path d="M116.291 53.4726C117.405 53.5806 118.518 53.6966 119.629 53.8166L122.082 47.76L124.414 54.3752C125.61 54.5251 126.806 54.6824 127.998 54.8467L123.91 43.2464L127.999 33.1494H124.536L124.5 33.199L122.291 38.6536L120.352 33.1502H116.933L120.463 43.1675L116.291 53.4726H116.291ZM113.705 53.2352V33.1494H110.287V52.9534C111.427 53.0414 112.567 53.136 113.705 53.2352ZM88.0301 52.112C88.9528 52.112 89.8744 52.119 90.7944 52.1264V44.7472H94.9003V41.6048H90.7947V36.2955H95.5235V33.1494H87.3635V52.1147C87.5851 52.1147 87.8077 52.1112 88.0301 52.112ZM77.4184 52.304C78.5571 52.2635 79.6968 52.2294 80.8381 52.2016V36.296H84.0328V33.1502H74.2237V36.296H77.4189V52.304H77.4184ZM51.2787 54.4219V42.4552L55.3256 53.9387C56.5701 53.799 57.8165 53.6675 59.0664 53.5432V33.1496H55.7869V45.5451L51.42 33.1496H48V54.852H48.0205C49.104 54.7022 50.1912 54.5598 51.2787 54.4219ZM70.928 36.2952V33.1496H62.7672V53.2032C65.4824 52.9688 68.2007 52.7723 70.9213 52.6136V49.4651C69.3437 49.5568 67.7693 49.6624 66.1987 49.78V44.7486H70.3045V41.6043H66.1987V36.2952H70.928ZM102.297 49.3147V33.1486H98.8643V52.3155C101.595 52.4158 104.315 52.5555 107.026 52.7315V49.5811C105.453 49.4795 103.877 49.3915 102.297 49.3147Z" fill="#E7ECFC"/>
</svg>
