<svg width="176" height="88" viewBox="0 0 176 88" fill="none" xmlns="http://www.w3.org/2000/svg">
<g clip-path="url(#clip0_2063_28465)">
<path fill-rule="evenodd" clip-rule="evenodd" d="M65.739 33.6653C61.638 38.4813 57.706 44.4536 57.6666 48.9177C57.6512 50.5974 58.1874 52.0637 59.4736 53.1743C61.3247 54.7738 63.3641 55.3379 65.3937 55.3412C68.3595 55.3453 71.3045 54.1488 73.6105 53.2262C77.4939 51.6731 120.422 33.0311 120.422 33.0311C120.836 32.8236 120.759 32.565 120.24 32.6941C120.031 32.7464 73.5063 45.3547 73.5063 45.3547C72.625 45.6039 71.7144 45.7343 70.7986 45.7423C67.2231 45.7635 64.0415 43.7788 64.0672 39.5965C64.0772 37.96 64.5781 35.9866 65.739 33.6653Z" fill="#051345"/>
</g>
<defs>
<clipPath id="clip0_2063_28465">
<rect width="80" height="80" fill="white" transform="translate(48 4)"/>
</clipPath>
</defs>
</svg>
