<svg width="176" height="88" viewBox="0 0 176 88" fill="none" xmlns="http://www.w3.org/2000/svg">
<g clip-path="url(#clip0_2063_28509)">
<path fill-rule="evenodd" clip-rule="evenodd" d="M105.628 58.835C100.997 62.2595 94.2597 64.0841 88.4492 64.0841C80.3089 64.0841 73.0106 61.0806 67.4527 56.0841C67.0317 55.6911 67.3966 55.1578 67.9299 55.4665C73.9089 58.9472 81.2913 61.0244 88.9264 61.0244C94.0633 61.0244 99.7334 59.9578 104.954 57.7402C105.74 57.4315 106.386 58.2736 105.628 58.835Z" fill="#051345"/>
<path fill-rule="evenodd" clip-rule="evenodd" d="M107.565 56.6174C106.975 55.8595 103.635 56.2525 102.147 56.449C101.698 56.5051 101.614 56.1121 102.035 55.8314C104.702 53.9507 109.053 54.5121 109.558 55.1297C110.063 55.7472 109.418 60.1262 106.919 62.2034C106.526 62.5121 106.161 62.3437 106.33 61.9227C106.891 60.5192 108.154 57.4034 107.565 56.6174Z" fill="#051345"/>
<path fill-rule="evenodd" clip-rule="evenodd" d="M102.232 42.6385V40.8139C102.232 40.5332 102.428 40.3648 102.681 40.3648H110.821C111.074 40.3648 111.298 40.5613 111.298 40.8139V42.3578C111.298 42.6104 111.074 42.9472 110.681 43.5086L106.47 49.5157C108.042 49.4876 109.698 49.7122 111.102 50.4981C111.411 50.6665 111.495 50.9472 111.523 51.1999V53.1367C111.523 53.4174 111.242 53.7262 110.933 53.5578C108.435 52.2385 105.095 52.0981 102.344 53.5858C102.063 53.7262 101.754 53.4455 101.754 53.1648V51.3122C101.754 51.0315 101.754 50.5262 102.063 50.0771L106.947 43.0876H102.709C102.456 43.0876 102.232 42.8911 102.232 42.6385ZM72.5614 53.9507H70.0912C69.8667 53.9227 69.6702 53.7543 69.6421 53.5297V40.842C69.6421 40.5894 69.8667 40.3929 70.1193 40.3929H72.4211C72.6737 40.3929 72.8421 40.5893 72.8702 40.8139V42.47H72.9263C73.5158 40.87 74.6667 40.1122 76.1825 40.1122C77.7263 40.1122 78.7088 40.87 79.3825 42.47C79.9719 40.87 81.3474 40.1122 82.807 40.1122C83.8456 40.1122 84.9684 40.5332 85.6702 41.5157C86.4561 42.5823 86.2877 44.1262 86.2877 45.5016V53.5297C86.2877 53.7823 86.0632 53.9788 85.8105 53.9788H83.3684C83.1158 53.9508 82.9193 53.7543 82.9193 53.5297V46.7929C82.9193 46.2595 82.9754 44.9122 82.8632 44.4069C82.6667 43.5648 82.1333 43.3122 81.4035 43.3122C80.814 43.3122 80.1684 43.7051 79.9158 44.3508C79.6632 44.9964 79.6912 46.063 79.6912 46.7929V53.5297C79.6912 53.7823 79.4667 53.9788 79.214 53.9788H76.7439C76.4912 53.9508 76.2947 53.7543 76.2947 53.5297V46.7929C76.2947 45.3893 76.5193 43.2841 74.7789 43.2841C73.0105 43.2841 73.0667 45.3051 73.0667 46.7929V53.5297C73.0386 53.7543 72.8421 53.9507 72.5614 53.9507ZM118.316 40.1122C121.993 40.1122 123.986 43.256 123.986 47.2701C123.986 51.1437 121.796 54.2315 118.316 54.2315C114.723 54.2315 112.758 51.0876 112.758 47.1578C112.73 43.1999 114.723 40.1122 118.316 40.1122ZM118.316 42.7227C116.491 42.7227 116.379 45.2209 116.379 46.7648C116.379 48.3087 116.351 51.6209 118.288 51.6209C120.196 51.6209 120.309 48.9543 120.309 47.3262C120.309 46.2595 120.253 44.9683 119.944 43.9578C119.663 43.0595 119.102 42.7227 118.316 42.7227ZM128.73 53.9507H126.26C126.007 53.9227 125.811 53.7262 125.811 53.5016V40.7858C125.839 40.5613 126.035 40.3648 126.288 40.3648H128.589C128.814 40.3648 128.982 40.5332 129.039 40.7297V42.6665H129.095C129.796 40.9262 130.751 40.1122 132.463 40.1122C133.558 40.1122 134.653 40.5051 135.354 41.5999C136 42.6104 136 44.3227 136 45.5578V53.5578C135.972 53.7823 135.775 53.9507 135.523 53.9507H133.053C132.828 53.9227 132.632 53.7543 132.604 53.5578V46.6525C132.604 45.249 132.772 43.2279 131.06 43.2279C130.47 43.2279 129.909 43.6209 129.628 44.2385C129.291 45.0244 129.235 45.7823 129.235 46.6525V53.5016C129.207 53.7543 128.982 53.9507 128.73 53.9507ZM95.7474 47.8876C95.7474 48.842 95.7754 49.656 95.2982 50.5262C94.9053 51.2279 94.2877 51.649 93.586 51.649C92.6316 51.649 92.0702 50.9192 92.0702 49.8525C92.0702 47.7472 93.9509 47.3543 95.7474 47.3543V47.8876ZM98.2456 53.9227C98.0772 54.063 97.8526 54.0911 97.6561 53.9788C96.8421 53.3051 96.6737 52.9683 96.2246 52.3227C94.8772 53.6981 93.8947 54.1192 92.1544 54.1192C90.0772 54.1192 88.4491 52.8279 88.4491 50.2736C88.4491 48.2525 89.5439 46.9051 91.0877 46.2315C92.4351 45.642 94.3158 45.5297 95.7474 45.3613V45.0525C95.7474 44.463 95.8035 43.7613 95.4386 43.256C95.1298 42.8069 94.5684 42.6104 94.0632 42.6104C93.1088 42.6104 92.2667 43.0876 92.0702 44.0981C92.014 44.3227 91.8737 44.5472 91.6491 44.5472L89.2632 44.2946C89.0667 44.2385 88.8421 44.0981 88.8983 43.7894C89.4597 40.8701 92.0702 39.9999 94.4281 39.9999C95.6351 39.9999 97.207 40.3086 98.1614 41.235C99.3684 42.3578 99.2561 43.8736 99.2561 45.5016V49.3472C99.2561 50.4981 99.7333 51.0034 100.182 51.649C100.351 51.8736 100.379 52.1543 100.182 52.2946C99.6491 52.7157 98.7509 53.5016 98.2456 53.9227ZM63.3263 47.8876C63.3263 48.842 63.3544 49.656 62.8772 50.5262C62.4842 51.2279 61.8667 51.649 61.1649 51.649C60.2105 51.649 59.6491 50.9192 59.6491 49.8525C59.6491 47.7472 61.5298 47.3543 63.3263 47.3543V47.8876ZM65.7965 53.9227C65.6281 54.063 65.4035 54.0911 65.207 53.9788C64.393 53.3051 64.2246 52.9683 63.7754 52.3227C62.4281 53.6981 61.4456 54.1192 59.7053 54.1192C57.6281 54.1192 56 52.8279 56 50.2736C56 48.2525 57.0947 46.9051 58.6386 46.2315C59.986 45.642 61.8667 45.5297 63.2982 45.3613V45.0525C63.2982 44.463 63.3544 43.7613 62.9895 43.256C62.6807 42.8069 62.1193 42.6104 61.614 42.6104C60.6596 42.6104 59.8175 43.0876 59.6211 44.0981C59.5649 44.3227 59.4246 44.5472 59.2 44.5472L56.814 44.2946C56.6175 44.2385 56.393 44.0981 56.4491 43.7894C57.0105 40.8701 59.6211 39.9999 61.9789 39.9999C63.186 39.9999 64.7579 40.3086 65.7123 41.235C66.9193 42.3578 66.807 43.8736 66.807 45.5016V49.3472C66.807 50.4981 67.2842 51.0034 67.7333 51.649C67.9018 51.8736 67.9298 52.1543 67.7333 52.2946C67.2 52.7157 66.3018 53.5016 65.7965 53.9227Z" fill="#051345"/>
</g>
<defs>
<clipPath id="clip0_2063_28509">
<rect width="176" height="88" fill="white"/>
</clipPath>
</defs>
</svg>
