<svg width="176" height="88" viewBox="0 0 176 88" fill="none" xmlns="http://www.w3.org/2000/svg">
<path fill-rule="evenodd" clip-rule="evenodd" d="M97.6282 50.793C92.9966 54.2175 86.2597 56.0421 80.4492 56.0421C72.3089 56.0421 65.0106 53.0386 59.4527 48.0421C59.0317 47.6491 59.3966 47.1158 59.9299 47.4246C65.9089 50.9053 73.2913 52.9824 80.9264 52.9824C86.0633 52.9824 91.7334 51.9158 96.9545 49.6982C97.7404 49.3895 98.3861 50.2316 97.6282 50.793Z" fill="#051345"/>
<path fill-rule="evenodd" clip-rule="evenodd" d="M99.5649 48.5754C98.9754 47.8175 95.6351 48.2105 94.1473 48.407C93.6982 48.4631 93.614 48.0701 94.0351 47.7894C96.7017 45.9087 101.053 46.4701 101.558 47.0877C102.063 47.7052 101.418 52.0842 98.9193 54.1614C98.5263 54.4701 98.1614 54.3017 98.3298 53.8807C98.8912 52.4772 100.154 49.3614 99.5649 48.5754Z" fill="#051345"/>
<path fill-rule="evenodd" clip-rule="evenodd" d="M94.2316 34.5965V32.7719C94.2316 32.4912 94.4281 32.3228 94.6807 32.3228H102.821C103.074 32.3228 103.298 32.5193 103.298 32.7719V34.3158C103.298 34.5684 103.074 34.9053 102.681 35.4667L98.4702 41.4737C100.042 41.4456 101.698 41.6702 103.102 42.4561C103.411 42.6245 103.495 42.9053 103.523 43.1579V45.0947C103.523 45.3754 103.242 45.6842 102.933 45.5158C100.435 44.1965 97.0947 44.0561 94.3439 45.5438C94.0632 45.6842 93.7544 45.4035 93.7544 45.1228V43.2702C93.7544 42.9895 93.7544 42.4842 94.0632 42.0351L98.9474 35.0456H94.7088C94.4561 35.0456 94.2316 34.8491 94.2316 34.5965ZM64.5614 45.9088H62.0912C61.8667 45.8807 61.6702 45.7123 61.6421 45.4877V32.8C61.6421 32.5474 61.8667 32.3509 62.1193 32.3509H64.4211C64.6737 32.3509 64.8421 32.5474 64.8702 32.7719V34.4281H64.9263C65.5158 32.8281 66.6667 32.0702 68.1825 32.0702C69.7263 32.0702 70.7088 32.8281 71.3825 34.4281C71.9719 32.8281 73.3474 32.0702 74.807 32.0702C75.8456 32.0702 76.9684 32.4912 77.6702 33.4737C78.4561 34.5403 78.2877 36.0842 78.2877 37.4596V45.4877C78.2877 45.7403 78.0632 45.9368 77.8105 45.9368H75.3684C75.1158 45.9088 74.9193 45.7123 74.9193 45.4877V38.7509C74.9193 38.2175 74.9754 36.8702 74.8632 36.3649C74.6667 35.5228 74.1333 35.2702 73.4035 35.2702C72.814 35.2702 72.1684 35.6631 71.9158 36.3088C71.6632 36.9544 71.6912 38.021 71.6912 38.7509V45.4877C71.6912 45.7403 71.4667 45.9368 71.214 45.9368H68.7439C68.4912 45.9088 68.2947 45.7123 68.2947 45.4877V38.7509C68.2947 37.3474 68.5193 35.2421 66.7789 35.2421C65.0105 35.2421 65.0667 37.2631 65.0667 38.7509V45.4877C65.0386 45.7123 64.8421 45.9088 64.5614 45.9088ZM110.316 32.0702C113.993 32.0702 115.986 35.214 115.986 39.2281C115.986 43.1017 113.796 46.1895 110.316 46.1895C106.723 46.1895 104.758 43.0456 104.758 39.1158C104.73 35.1579 106.723 32.0702 110.316 32.0702ZM110.316 34.6807C108.491 34.6807 108.379 37.1789 108.379 38.7228C108.379 40.2667 108.351 43.5789 110.288 43.5789C112.196 43.5789 112.309 40.9123 112.309 39.2842C112.309 38.2175 112.253 36.9263 111.944 35.9158C111.663 35.0175 111.102 34.6807 110.316 34.6807ZM120.73 45.9088H118.26C118.007 45.8807 117.811 45.6842 117.811 45.4596V32.7438C117.839 32.5193 118.035 32.3228 118.288 32.3228H120.589C120.814 32.3228 120.982 32.4912 121.039 32.6877V34.6246H121.095C121.796 32.8842 122.751 32.0702 124.463 32.0702C125.558 32.0702 126.653 32.4631 127.354 33.5579C128 34.5684 128 36.2807 128 37.5158V45.5158C127.972 45.7403 127.775 45.9088 127.523 45.9088H125.053C124.828 45.8807 124.632 45.7123 124.604 45.5158V38.6105C124.604 37.207 124.772 35.186 123.06 35.186C122.47 35.186 121.909 35.5789 121.628 36.1965C121.291 36.9824 121.235 37.7403 121.235 38.6105V45.4596C121.207 45.7123 120.982 45.9088 120.73 45.9088ZM87.7474 39.8456C87.7474 40.8 87.7754 41.614 87.2982 42.4842C86.9053 43.186 86.2877 43.607 85.586 43.607C84.6316 43.607 84.0702 42.8772 84.0702 41.8105C84.0702 39.7053 85.9509 39.3123 87.7474 39.3123V39.8456ZM90.2456 45.8807C90.0772 46.021 89.8526 46.0491 89.6561 45.9368C88.8421 45.2631 88.6737 44.9263 88.2246 44.2807C86.8772 45.6561 85.8947 46.0772 84.1544 46.0772C82.0772 46.0772 80.4491 44.786 80.4491 42.2316C80.4491 40.2105 81.5439 38.8631 83.0877 38.1895C84.4351 37.6 86.3158 37.4877 87.7474 37.3193V37.0105C87.7474 36.421 87.8035 35.7193 87.4386 35.214C87.1298 34.7649 86.5684 34.5684 86.0632 34.5684C85.1088 34.5684 84.2667 35.0456 84.0702 36.0561C84.014 36.2807 83.8737 36.5052 83.6491 36.5052L81.2632 36.2526C81.0667 36.1965 80.8421 36.0561 80.8983 35.7474C81.4597 32.8281 84.0702 31.9579 86.4281 31.9579C87.6351 31.9579 89.207 32.2667 90.1614 33.193C91.3684 34.3158 91.2561 35.8316 91.2561 37.4596V41.3053C91.2561 42.4561 91.7333 42.9614 92.1825 43.607C92.3509 43.8316 92.3789 44.1123 92.1825 44.2526C91.6491 44.6737 90.7509 45.4596 90.2456 45.8807ZM55.3263 39.8456C55.3263 40.8 55.3544 41.614 54.8772 42.4842C54.4842 43.186 53.8667 43.607 53.1649 43.607C52.2105 43.607 51.6491 42.8772 51.6491 41.8105C51.6491 39.7053 53.5298 39.3123 55.3263 39.3123V39.8456ZM57.7965 45.8807C57.6281 46.021 57.4035 46.0491 57.207 45.9368C56.393 45.2631 56.2246 44.9263 55.7754 44.2807C54.4281 45.6561 53.4456 46.0772 51.7053 46.0772C49.6281 46.0772 48 44.786 48 42.2316C48 40.2105 49.0947 38.8631 50.6386 38.1895C51.986 37.6 53.8667 37.4877 55.2982 37.3193V37.0105C55.2982 36.421 55.3544 35.7193 54.9895 35.214C54.6807 34.7649 54.1193 34.5684 53.614 34.5684C52.6596 34.5684 51.8175 35.0456 51.6211 36.0561C51.5649 36.2807 51.4246 36.5052 51.2 36.5052L48.814 36.2526C48.6175 36.1965 48.393 36.0561 48.4491 35.7474C49.0105 32.8281 51.6211 31.9579 53.9789 31.9579C55.186 31.9579 56.7579 32.2667 57.7123 33.193C58.9193 34.3158 58.807 35.8316 58.807 37.4596V41.3053C58.807 42.4561 59.2842 42.9614 59.7333 43.607C59.9018 43.8316 59.9298 44.1123 59.7333 44.2526C59.2 44.6737 58.3018 45.4596 57.7965 45.8807Z" fill="#051345"/>
</svg>
