<svg width="176" height="88" viewBox="0 0 176 88" fill="none" xmlns="http://www.w3.org/2000/svg">
<g clip-path="url(#clip0_2063_28505)">
<path d="M59.997 32.0029C53.3714 32.0029 48 37.3742 48 43.9998C48 50.6261 53.3714 55.9971 59.997 55.9971C66.6229 55.9971 71.994 50.6261 71.994 43.9998C71.994 37.3746 66.6232 32.0035 59.9969 32.0035L59.997 32.0029ZM65.4988 49.3058C65.2833 49.6593 64.8229 49.77 64.4706 49.5547C61.6534 47.8328 58.1074 47.4439 53.9314 48.3979C53.529 48.4901 53.1278 48.2378 53.0362 47.8356C52.944 47.4331 53.1952 47.032 53.5986 46.9403C58.1686 45.8955 62.0886 46.3452 65.2508 48.2775C65.6032 48.4939 65.7149 48.9537 65.4986 49.3061L65.4988 49.3058ZM66.9672 46.0397C66.6958 46.4799 66.1202 46.618 65.6805 46.3477C62.4565 44.3658 57.5402 43.7918 53.7259 44.9496C53.2313 45.099 52.7088 44.8202 52.5587 44.3264C52.4097 43.8317 52.6886 43.3103 53.1824 43.1599C57.5394 41.8379 62.9557 42.4782 66.659 44.7539C67.0988 45.0247 67.2378 45.6006 66.967 46.0398L66.9672 46.0397ZM67.0932 42.6381C63.2261 40.3415 56.8473 40.1303 53.1556 41.2508C52.5628 41.4306 51.9359 41.0959 51.7563 40.5031C51.5766 39.91 51.911 39.2835 52.5042 39.1033C56.742 37.8168 63.7868 38.0654 68.2384 40.7081C68.7717 41.0246 68.9466 41.7132 68.6305 42.2457C68.3154 42.7789 67.6249 42.9547 67.0934 42.6381H67.0932ZM80.6399 43.0782C78.5685 42.5842 78.1997 42.2376 78.1997 41.5091C78.1997 40.8209 78.8477 40.3577 79.8113 40.3577C80.7453 40.3577 81.6715 40.7094 82.6425 41.4334C82.6719 41.4554 82.7087 41.4641 82.7449 41.4584C82.7812 41.4529 82.8133 41.433 82.8345 41.4031L83.8459 39.9773C83.8874 39.9186 83.8761 39.8377 83.8201 39.7928C82.6644 38.8655 81.3631 38.4147 79.8419 38.4147C77.6054 38.4147 76.0431 39.7569 76.0431 41.6773C76.0431 43.7366 77.3908 44.4658 79.7196 45.0287C81.7017 45.4852 82.0362 45.8678 82.0362 46.5515C82.0362 47.3092 81.3598 47.7803 80.2711 47.7803C79.062 47.7803 78.0758 47.373 76.9726 46.4176C76.9452 46.3939 76.9077 46.3832 76.873 46.3852C76.8365 46.3882 76.8031 46.4051 76.7799 46.4331L75.6459 47.7827C75.5983 47.8387 75.6043 47.9224 75.6593 47.9708C76.9429 49.1167 78.5216 49.722 80.2253 49.722C82.6354 49.722 84.1927 48.4052 84.1927 46.367C84.197 44.6465 83.167 43.6938 80.6442 43.0801L80.6399 43.0782ZM89.6452 41.0353C88.6005 41.0353 87.7437 41.4468 87.0371 42.2898V41.3409C87.0371 41.266 86.9764 41.2049 86.9016 41.2049H85.0468C84.9719 41.2049 84.9113 41.266 84.9113 41.3409V51.8851C84.9113 51.96 84.9719 52.021 85.0468 52.021H86.9016C86.9764 52.021 87.0371 51.96 87.0371 51.8851V48.5567C87.7438 49.3498 88.6008 49.7373 89.6452 49.7373C91.5862 49.7373 93.5512 48.2431 93.5512 45.3868C93.554 42.5298 91.5885 41.0352 89.6473 41.0352L89.6452 41.0353ZM91.3944 45.3868C91.3944 46.8414 90.4984 47.8563 89.2155 47.8563C87.9473 47.8563 86.9906 46.7952 86.9906 45.3868C86.9906 43.9786 87.9473 42.9173 89.2155 42.9173C90.4777 42.9172 91.3945 43.9555 91.3945 45.3867L91.3944 45.3868ZM98.5875 41.0353C96.0877 41.0353 94.1294 42.9602 94.1294 45.4179C94.1294 47.8489 96.0743 49.7535 98.5568 49.7535C101.065 49.7535 103.03 47.8351 103.03 45.3868C103.03 42.947 101.079 41.0356 98.5873 41.0356L98.5875 41.0353ZM98.5875 47.8708C97.2579 47.8708 96.2555 46.8025 96.2555 45.3861C96.2555 43.9637 97.2232 42.9315 98.5568 42.9315C99.895 42.9315 100.904 43.9998 100.904 45.4172C100.904 46.8393 99.93 47.8708 98.5876 47.8708H98.5875ZM108.368 41.2049H106.327V39.1182C106.327 39.0434 106.266 38.9824 106.191 38.9824H104.337C104.262 38.9824 104.201 39.0434 104.201 39.1182V41.2049H103.309C103.235 41.2049 103.174 41.266 103.174 41.3409V42.9349C103.174 43.0097 103.235 43.0709 103.309 43.0709H104.201V47.1955C104.201 48.8623 105.031 49.7074 106.667 49.7074C107.332 49.7074 107.884 49.57 108.404 49.275C108.446 49.2514 108.473 49.2059 108.473 49.1574V47.6395C108.473 47.5926 108.448 47.5483 108.408 47.5238C108.368 47.4985 108.318 47.4972 108.276 47.5177C107.919 47.6975 107.573 47.7804 107.187 47.7804C106.592 47.7804 106.327 47.5102 106.327 46.9047V43.0716H108.368C108.443 43.0716 108.503 43.0106 108.503 42.9357V41.3418C108.506 41.2668 108.446 41.2058 108.37 41.2058L108.368 41.2049ZM115.479 41.2131V40.9568C115.479 40.2028 115.768 39.8666 116.417 39.8666C116.803 39.8666 117.114 39.9434 117.462 40.0594C117.505 40.0729 117.549 40.0662 117.584 40.0405C117.62 40.0149 117.64 39.9738 117.64 39.9302V38.3672C117.64 38.3075 117.602 38.2546 117.544 38.237C117.177 38.1277 116.707 38.0155 116.003 38.0155C114.289 38.0155 113.384 38.9802 113.384 40.8044V41.1969H112.493C112.418 41.1969 112.357 41.2579 112.357 41.3327V42.9349C112.357 43.0097 112.418 43.0709 112.493 43.0709H113.384V49.4329C113.384 49.5078 113.444 49.5689 113.519 49.5689H115.374C115.449 49.5689 115.51 49.5078 115.51 49.4329V43.0713H117.242L119.894 49.4318C119.593 50.1001 119.297 50.233 118.893 50.233C118.566 50.233 118.222 50.1355 117.87 49.9429C117.837 49.9247 117.798 49.9217 117.762 49.9327C117.727 49.9452 117.697 49.9716 117.682 50.006L117.053 51.3851C117.023 51.4503 117.049 51.5268 117.112 51.5606C117.768 51.916 118.36 52.0677 119.093 52.0677C120.462 52.0677 121.219 51.4298 121.886 49.7136L125.104 41.3988C125.12 41.3569 125.115 41.3096 125.09 41.2725C125.064 41.2357 125.023 41.2135 124.978 41.2135H123.047C122.99 41.2135 122.938 41.2503 122.919 41.3046L120.941 46.9545L118.774 41.3009C118.755 41.2483 118.704 41.2135 118.648 41.2135H115.479L115.479 41.2131ZM111.356 41.2049H109.501C109.427 41.2049 109.365 41.266 109.365 41.3409V49.4329C109.365 49.5078 109.427 49.5689 109.501 49.5689H111.356C111.431 49.5689 111.492 49.5078 111.492 49.4329V41.3415C111.492 41.3236 111.489 41.3059 111.482 41.2893C111.475 41.2728 111.465 41.2578 111.452 41.2452C111.44 41.2325 111.425 41.2225 111.408 41.2157C111.392 41.2089 111.374 41.2054 111.356 41.2055L111.356 41.2049ZM110.439 37.5204C109.705 37.5204 109.108 38.1152 109.108 38.85C109.108 39.5852 109.705 40.1808 110.439 40.1808C111.174 40.1808 111.77 39.5852 111.77 38.85C111.77 38.1154 111.174 37.5204 110.44 37.5204H110.439ZM126.688 43.8067C125.954 43.8067 125.383 43.2172 125.383 42.5013C125.383 41.7854 125.961 41.1892 126.695 41.1892C127.429 41.1892 128 41.7785 128 42.4938C128 43.2097 127.421 43.8067 126.688 43.8067H126.688ZM126.695 41.319C126.026 41.319 125.521 41.8505 125.521 42.5013C125.521 43.1518 126.023 43.6762 126.688 43.6762C127.357 43.6762 127.863 43.1451 127.863 42.4938C127.863 41.8433 127.36 41.319 126.696 41.319H126.695ZM126.984 42.6281L127.354 43.145H127.042L126.71 42.6708H126.424V43.145H126.164V41.7748H126.775C127.093 41.7748 127.302 41.9377 127.302 42.2119C127.304 42.4365 127.173 42.5738 126.986 42.6281L126.984 42.6281ZM126.764 42.0099H126.424V42.4433H126.764C126.933 42.4433 127.035 42.3603 127.035 42.2264C127.035 42.0854 126.933 42.0099 126.764 42.0099L126.764 42.0099Z" fill="#051345"/>
</g>
<defs>
<clipPath id="clip0_2063_28505">
<rect width="80" height="80" fill="white" transform="translate(48 4)"/>
</clipPath>
</defs>
</svg>
